<?xml version="1.0" encoding="UTF-8" standalone="no"?>
<svg xmlns:dc="http://purl.org/dc/elements/1.1/" xmlns:cc="http://creativecommons.org/ns#" xmlns:rdf="http://www.w3.org/1999/02/22-rdf-syntax-ns#" xmlns:svg="http://www.w3.org/2000/svg" xmlns="http://www.w3.org/2000/svg" version="1.1" id="svg834" xml:space="preserve" width="933" height="291" viewBox="0 0 933 291"><metadata id="metadata840"><rdf:RDF><cc:Work rdf:about=""><dc:format>image/svg+xml</dc:format><dc:type rdf:resource="http://purl.org/dc/dcmitype/StillImage"/><dc:title/></cc:Work></rdf:RDF></metadata><defs id="defs838">


</defs><rect y="201.25359" x="445.07489" height="76.952583" width="140.59444" id="rect926" style="opacity:1;fill:#ffffff;fill-opacity:1;stroke-width:0;stroke-linejoin:round;stroke-miterlimit:4;stroke-dasharray:none;paint-order:stroke markers fill"/><path id="path848" style="fill:#ffffff;fill-opacity:1;fill-rule:nonzero;stroke:none;stroke-width:1.78672457" d="m 225.41023,223.84672 c 2.25931,2.85661 4.19719,5.92728 5.80006,9.17375 3.35994,6.80599 5.25316,14.391 5.56672,22.40785 0.12706,3.22629 0.17117,6.95894 0.15902,10.81523 -0.012,4.57919 -0.10493,9.30544 -0.22584,13.5548 l -0.0345,1.15333 -0.0161,0.57318 h -1.72402 l -165.665233,-0.0547 h -6.143116 c 9.052261,-5.71341 17.265297,-11.58459 26.992583,-16.35693 l 0.659838,-0.32125 c -5.345701,-0.80117 -10.655668,-1.61448 -15.98922,-2.57378 -3.418182,-0.61588 -6.584258,-1.40097 -9.747654,-2.18087 -2.356154,-0.5814 -4.715703,-1.16495 -7.067747,-1.65933 l -0.74149,0.27051 -2.72136,0.99163 c -9.662607,3.51288 -19.367201,4.95244 -28.226496,6.26211 l -1.451534,0.21423 -0.05611,0.008 -0.12364,0.006 c -4.088204,0.18797 -7.052201,-0.98305 -8.776212,-2.73744 -0.920164,-0.94107 -1.505673,-2.05116 -1.732051,-3.22414 -0.227986,-1.17906 -0.09112,-2.40887 0.409696,-3.57988 0.90051,-2.10334 3.009917,-4.03139 6.347696,-5.08949 3.52896,-1.1142 7.10634,-0.71058 10.598851,-0.315 h 0.0083 c 0.75364,0.0845 1.516393,0.17367 2.414758,0.25014 4.132872,0.35967 8.414579,0.82815 12.727196,1.4217 3.704773,0.51047 7.413298,1.12028 11.039098,1.84515 5.459695,-1.98845 11.544028,-4.18308 17.821328,-6.22262 l -2.804444,-0.78295 h -0.008 c -6.597924,-1.8491 -13.23221,-3.71051 -19.91063,-5.06181 h -0.008 l -1.213007,-0.26032 c -5.382865,1.16137 -10.986928,2.28575 -16.064798,3.16357 -4.847563,0.83815 -9.196093,1.44796 -12.383788,1.64343 -2.055805,0.12507 -4.603317,0.17581 -6.838509,-0.15491 -2.61791,-0.39004 -4.887407,-1.33468 -5.86689,-3.28507 -0.369316,-0.73684 -0.6233875,-1.48745 -0.7445275,-2.2309 h -0.002 c -0.216372,-1.31235 -0.024307,-2.57592 0.6198145,-3.72068 l 0.0061,-0.006 c 0.609274,-1.07418 1.61109,-2.0106 3.042435,-2.73191 l -0.002,-0.002 c 1.097943,-0.55316 2.476579,-0.98466 4.146452,-1.25767 2.027396,-0.33072 4.153063,-0.43203 6.091301,-0.41381 3.060659,0.0284 5.693219,0.3552 6.760966,0.52887 6.099521,0.99718 11.835263,2.45943 16.525236,3.65064 1.742235,0.44364 3.340639,0.84941 4.714274,1.17495 l 1.555878,-0.34126 c 7.678628,-1.69007 15.131771,-3.6501 22.575444,-5.62283 -4.842916,-1.69363 -8.757988,-3.33724 -10.671927,-4.35478 l -0.0039,0.006 c -2.586106,-1.37256 -4.966559,-2.44674 -7.365236,-3.39174 -1.067568,-0.41988 -2.145856,-0.81742 -3.253983,-1.20746 -2.331948,0.45439 -4.683992,0.89857 -7.05033,1.32846 -4.931896,0.89443 -9.85182,1.6009 -14.608617,2.13031 -5.157916,0.57318 -10.175039,0.95268 -14.865012,1.15476 l -0.10488,0.004 -0.07701,-0.004 c -1.093832,-0.0649 -2.069384,-0.22602 -2.921295,-0.45633 h -0.008 c -2.081713,-0.56585 -3.543253,-1.57678 -4.479855,-2.81445 l 0.0056,-0.004 c -0.9869862,-1.30216 -1.3704168,-2.81606 -1.2776862,-4.31422 0.028227,-0.49475 0.1148934,-0.99771 0.2501414,-1.49245 l -0.00413,-0.002 c 0.3414427,-1.2616 0.9269528,-2.44674 1.9909478,-3.44802 1.011464,-0.95268 2.432625,-1.69971 4.453411,-2.1237 3.541288,-0.74096 7.011642,-0.83011 10.498257,-0.50689 3.438373,0.3191 6.870849,1.03773 10.403382,1.9159 1.726691,0.4281 2.617016,0.64179 3.638128,0.88639 3.729073,0.89247 7.538728,1.8071 10.793425,2.86716 1.257496,0.40916 2.463,0.80724 3.629909,1.2089 3.50466,-0.69021 7.001459,-1.41098 10.439832,-2.14193 2.755665,-0.58533 5.438611,-1.16887 8.045441,-1.7442 -0.914802,-0.42845 -1.822816,-0.86406 -2.729936,-1.31235 -1.524076,-0.7531 -3.521097,-1.77457 -5.705369,-2.89288 -3.749084,-1.91805 -8.086,-4.1368 -12.666448,-6.30714 -5.212589,0.64572 -10.831481,1.29002 -16.116969,1.77207 -6.522974,0.5957 -12.537803,0.94715 -16.640302,0.76544 -2.248593,-0.0988 -4.625114,-0.63822 -6.534945,-1.59448 -1.855156,-0.93088 -3.3249158,-2.28164 -3.9590238,-4.04407 h -0.00613 c -0.189572,-0.53083 -0.308568,-1.07632 -0.3530573,-1.6152 -0.13722,-1.6638 0.3934373,-3.32152 1.5056733,-4.74625 1.0261158,-1.31432 2.5662718,-2.43709 4.5289898,-3.13963 1.074179,-0.3854 2.273071,-0.65627 3.554867,-0.76115 9.679223,-0.80939 22.898662,4.23972 34.598133,9.71514 l 2.456926,-0.31143 c 7.288227,-0.93249 12.210654,-1.02308 15.410499,-1.08186 l 0.204044,-0.002 -0.512969,-0.27854 c -1.635388,-0.89051 -3.062624,-1.65576 -4.415532,-2.38046 -5.630327,-3.01813 -10.788778,-5.78398 -13.746701,-8.05545 v -0.005 l -0.346804,-0.25425 c -9.160178,0.30482 -18.568355,0.21423 -25.83425,-0.98306 -4.179327,-0.68842 -7.40508,-2.09779 -9.654386,-3.86236 l 0.002,-0.002 c -2.729759,-2.13978 -4.096246,-4.82916 -4.096246,-7.49424 0,-1.22927 0.223876,-2.28522 0.63804,-3.17358 l -0.0039,-0.002 c 1.239274,-2.66097 3.892202,-3.55701 7.344868,-3.27686 2.886811,0.23442 6.438284,1.34112 10.148596,2.8752 8.756023,3.6258 18.632678,9.76928 22.464666,12.32501 6.456508,-0.24014 12.763645,-0.66199 18.035019,-1.01701 2.163724,-0.14579 4.156635,-0.28105 5.921205,-0.38593 -1.960572,-1.66737 -3.674399,-3.25863 -5.063756,-4.64941 -1.452964,-1.45565 -3.203419,-2.99384 -5.073404,-4.51416 -2.159972,-1.75653 -4.505941,-3.50681 -6.758821,-5.09574 l -0.830113,-0.58748 c -4.21131,-0.44007 -8.497662,-0.99717 -12.662337,-1.66576 -9.912748,-1.59072 -19.157261,-3.83199 -25.113487,-6.70879 l 0.0021,-0.002 c -1.496203,-0.72076 -2.580031,-2.39457 -3.006521,-4.31011 -0.253715,-1.14315 -0.286055,-2.40869 -0.04395,-3.60811 h 0.002 c 0.254787,-1.26411 0.822072,-2.47515 1.746344,-3.44195 1.227122,-1.28037 3.04029,-2.10584 5.543849,-2.04563 10.249902,0.25479 19.353265,6.96555 29.63783,14.54645 1.699711,1.25142 3.433727,2.52768 5.20044,3.79804 7.326642,0.73631 14.388314,1.12027 20.111907,1.14261 -0.952502,-0.87478 -1.87892,-1.74438 -2.777998,-2.59468 -4.584557,-4.34246 -8.343647,-8.17248 -10.388732,-10.25812 -0.803669,-0.81958 -1.336469,-1.36095 -1.524433,-1.53015 v -0.009 l -0.89247,-0.82208 c -4.905533,-1.12806 -9.892817,-2.3902 -14.544197,-3.81493 -14.352044,-4.39981 -25.617878,-10.49255 -22.871861,-19.45457 0.335368,-1.09402 0.932848,-2.06903 1.734195,-2.86878 l -0.0041,-0.004 c 1.092402,-1.09204 2.578421,-1.86194 4.296357,-2.18856 1.622882,-0.30694 3.474465,-0.21618 5.400553,0.3754 2.285221,0.70094 4.708199,2.11995 7.007535,4.42339 2.412434,2.41852 8.547869,8.49213 13.858193,13.67435 2.664541,2.60218 5.135582,4.99068 6.847442,6.60998 4.601352,1.04578 9.113546,1.97219 13.177452,2.80838 2.650962,0.54494 5.118429,1.05148 7.310382,1.52997 -3.247908,-3.3108 -6.81957,-8.22716 -10.790744,-13.69793 -1.657722,-2.28379 -3.387807,-4.66371 -5.188826,-7.06024 l -10.330663,-4.2985 -6.509217,-2.70706 c -5.222596,-2.17034 -9.621333,-4.65764 -12.629819,-7.0867 -3.312944,-2.67097 -5.079479,-5.44093 -4.718382,-7.9343 0.234596,-1.61716 0.700932,-2.89092 1.350763,-3.85628 v -0.009 c 1.477979,-2.19213 3.676544,-2.77157 6.250499,-2.28933 2.124058,0.40219 4.506119,1.58679 6.884429,3.14571 6.161698,4.0421 12.60409,10.76465 14.019177,12.3518 2.788182,3.13105 5.435394,6.45812 7.942526,9.77142 7.308417,3.0444 14.46139,6.03412 21.547898,9.02635 -1.556952,-2.67061 -2.961853,-5.25511 -4.102498,-7.54087 -1.454038,-2.91522 -3.954915,-7.60322 -7.043983,-12.82582 -6.351628,-3.2765 -12.274798,-6.84208 -18.147941,-10.38123 -2.560197,-1.54016 -5.152377,-3.10319 -6.965009,-4.16736 -1.807093,-1.06149 -4.962985,-4.994256 -6.53155,-8.784256 -0.634108,-1.53408 -1.041303,-3.096573 -1.045234,-4.512186 -0.0041,-1.685427 0.530658,-3.16948 1.836931,-4.2274 1.052024,-0.851907 2.553588,-1.35648 4.601352,-1.35648 2.676692,0 5.11575,1.16084 7.520145,3.070853 2.200531,1.750267 4.386945,4.154493 6.737024,6.86424 3.78732,4.374426 7.593044,9.773379 11.003185,15.105499 1.227123,1.91752 2.402073,3.82753 3.508771,5.67714 5.242963,2.6624 10.775199,5.10932 16.797168,7.14887 l 0.48063,0.16759 c -2.108,-4.97905 -4.673741,-10.98566 -7.480149,-17.11662 -8.790328,-5.67358 -17.112176,-11.568339 -22.749113,-17.082339 -7.168696,-7.015586 -10.175217,-13.5952 -5.081445,-18.799746 3.508771,-3.583813 7.55445,-2.404747 11.78202,1.738133 6.159733,6.032693 13.010213,19.093106 18.836722,31.721512 5.341775,3.42586 10.838995,6.77508 15.989395,9.89845 -1.03379,-3.06101 -2.03454,-6.21029 -3.00598,-9.39192 -1.42117,-4.654069 -2.71976,-9.155536 -3.96313,-13.522829 -1.45351,-1.094547 -3.1391,-2.30148 -4.92601,-3.58328 -9.079058,-6.503133 -20.671684,-14.808906 -20.671684,-22.028706 0,-3.841453 0.593549,-6.476693 1.564456,-8.192667 l 0.0021,0.0013 c 1.011822,-1.792973 2.418868,-2.66668 4.023883,-2.880907 1.44546,-0.19404 2.979541,0.19796 4.469669,0.93284 2.840713,1.402947 5.69322,4.166827 7.304309,6.230133 5.590487,7.175307 8.202847,16.381413 10.982817,26.18928 l 0.12307,0.433986 0.22244,0.785627 c 1.27429,0.98716 2.36009,1.89768 3.1734,2.713147 2.38653,2.390093 6.60392,5.493813 11.3684,8.994556 l 1.9225,1.41293 c -2.12208,-7.84122 -3.91292,-15.32134 -5.04338,-20.663473 -2.1505,-2.25288 -4.2256,-4.550786 -6.18207,-6.92856 l -1.45564,-1.746346 -0.001,0.0013 c -4.83739,-5.7804 -12.75561,-15.23664 -12.75561,-21.958119 0,-2.61184 0.49903,-4.614934 1.30628,-6.017867 0.67859,-1.175133 1.58482,-1.966653 2.61898,-2.376346 1.06756,-0.42596 2.22696,-0.438107 3.38584,-0.0624 v 0.0013 c 1.26356,0.4072 2.54143,1.296093 3.67386,2.613973 2.47318,2.8752 4.9017,7.692387 6.89658,12.707373 2.53393,6.371453 4.41911,13.15868 4.81915,16.635653 0.1272,1.11224 0.46044,2.98204 0.95929,5.40252 3.02617,3.131053 6.20995,6.203866 9.40979,9.289173 2.45281,2.364373 4.91581,4.73804 7.33272,7.165133 -0.3368,-3.33368 -0.58963,-6.65448 -0.58963,-9.802333 h 0.005 c 0,-1.897147 -0.2101,-5.317466 -0.63,-9.55308 -2.84232,-3.369586 -5.58582,-6.839933 -8.35025,-11.105919 -4.81255,-7.42384 -8.43673,-14.6188 -10.29457,-20.416907 -1.93359,-6.035199 -1.96611,-10.801639 0.45276,-13.226053 v -0.0093 c 1.20693,-1.207467 2.42048,-1.95664 3.62794,-2.297906 2.99634,-0.8478 5.54992,0.720773 7.70847,3.902919 1.82281,2.684734 3.39745,6.621614 4.73804,11.168107 2.75173,9.341893 4.58116,21.483573 5.52973,30.518146 l 2.6347,3.062626 c 2.91112,3.36548 5.96784,6.90212 9.279,11.269587 l 0.0684,-2.023467 c 0.20618,-5.945506 0.42792,-12.30124 0.54958,-18.634106 -4.46001,-8.192667 -8.66329,-16.56312 -11.69965,-25.36524 -2.03347,-5.897253 -2.85089,-11.675706 -2.44316,-15.552186 0.16759,-1.60716 0.55513,-2.957386 1.15887,-3.940973 v -0.0067 c 0.79562,-1.29412 1.92805,-2.01632 3.39388,-2.014706 v -0.0053 c 0.945,0 1.9645,0.33876 3.05048,1.061494 v 0.0093 c 4.81701,3.212173 7.39293,8.722066 8.73958,15.515373 1.28644,6.47884 1.45564,14.186773 1.43992,22.149133 -0.005,2.404746 -0.0304,4.831666 -0.0748,7.260173 1.39079,2.54608 2.80838,5.075906 4.21935,7.595186 1.63753,2.923267 3.26685,5.83456 4.84953,8.74816 0.434,-5.97784 0.826,-11.93388 1.17299,-17.863666 l -0.0911,-0.173307 0.004,-0.0013 c -1.1887,-2.2838 -3.40336,-7.516573 -5.47489,-13.7208 v -0.0067 c -2.19248,-6.577467 -4.25544,-14.299693 -4.82111,-20.865013 -0.61392,-7.123133 0.52923,-13.066493 5.00694,-15.40032 h 0.009 c 0.35895,-0.185453 0.75507,-0.3552 1.18245,-0.49688 0.63215,-0.207613 1.26215,-0.300346 1.87195,-0.28624 1.68971,0.03867 3.21217,0.862094 4.43519,2.131747 1.09454,1.132426 1.97076,2.65704 2.50553,4.265986 0.41237,1.241947 0.63213,2.55376 0.60373,3.789454 v 0.0093 c -0.23602,9.993146 -0.60373,19.952879 -1.0899,29.865626 -0.16563,3.375666 -0.34538,6.743106 -0.53691,10.10268 l 8.39028,16.098746 0.012,-0.05267 0.41988,-1.780826 c 1.60501,-6.807427 3.42425,-14.51392 5.03892,-22.161107 -6.13293,-20.558772 -10.21096,-40.687105 -1.86731,-44.003985 4.39356,-1.744387 7.14887,-0.226373 8.67527,3.61776 2.79229,7.021653 0.32517,23.549919 -3.1634,40.300999 2.13175,6.959466 4.4636,13.993453 6.59784,20.377053 0.8478,-2.618614 1.73812,-5.293707 2.63862,-7.9972 1.82139,-5.468987 3.68459,-11.067507 5.3241,-16.530413 l -1.38364,-5.98392 c -2.90522,-12.5378 -5.34375,-23.066253 -5.44863,-27.558266 v -0.0093 c -0.0643,-2.840347 0.57533,-5.022653 1.5968,-6.53548 0.78563,-1.162973 1.80316,-1.958067 2.91736,-2.382053 1.14512,-0.43596 2.38045,-0.478494 3.57167,-0.145267 1.37256,0.3854 2.68884,1.283947 3.72657,2.669013 6.25247,8.344187 3.51288,23.677666 -1.31432,40.040853 1.66184,7.244093 3.36351,14.877693 4.78879,22.213812 2.22893,-5.323906 4.67978,-10.837026 7.14081,-16.298679 -0.15901,-1.56196 -0.29837,-3.088533 -0.41737,-4.564373 -0.0952,-1.207467 -0.38183,-3.369574 -0.74346,-6.1172 -0.7431,-5.657307 -1.80673,-13.743133 -2.25092,-20.677773 l -0.11733,-1.675413 c -0.35913,-5.01908 -0.71665,-9.9776 2.2066,-12.8042 l 0.001,0.0013 c 0.70844,-0.682346 1.9118,-1.280013 3.2849,-1.532653 h 0.005 c 1.06829,-0.191533 2.27772,-0.199573 3.46893,0.102667 1.22104,0.311613 2.4387,0.947146 3.48036,2.023466 1.15476,1.193174 2.07707,2.917187 2.51732,5.328013 0.84226,4.606894 0.70647,11.164173 -0.75472,18.77544 -1.25141,6.504746 -3.47642,13.827826 -6.89264,21.392453 l -0.15133,0.3368 c 0.51851,4.948693 1.21139,10.191839 2.02275,15.396746 0.29069,1.87356 0.5998,3.746933 0.91873,5.6062 l 1.54033,-3.193773 c 1.58268,-3.31544 3.19378,-6.547267 4.7668,-9.702987 1.68363,-3.381733 3.32903,-6.680386 4.86722,-9.94508 l -0.0684,-0.94464 c -0.91266,-12.535666 -1.76243,-24.166346 -1.52443,-34.158065 0.0968,-4.049787 1.98683,-6.958933 4.34709,-8.273253 1.0372,-0.577467 2.17588,-0.85852 3.3067,-0.807774 h 0.005 c 1.14904,0.05467 2.28557,0.444174 3.29901,1.19728 2.26146,1.675413 3.9333,5.24296 3.63402,11.02088 -0.60784,11.723773 -4.43323,22.044786 -9.38191,32.639519 0.43452,5.982493 0.87675,12.17832 1.21551,18.6166 l 0.21225,4.007626 c 1.40295,-2.123706 2.85037,-4.251866 4.31405,-6.4038 2.42298,-3.563626 4.89152,-7.191386 7.27608,-10.971199 0.1276,-1.649147 0.27695,-3.29204 0.45026,-4.926 0.42649,-3.997093 0.60569,-7.936453 0.77329,-11.667133 0.51261,-11.423067 0.95072,-21.052986 8.02721,-26.14676 1.13243,-0.813306 2.22091,-1.20728 3.23023,-1.223546 h 0.009 c 1.42938,-0.0224 2.59218,0.648226 3.4507,1.875533 h 0.009 c 0.66609,0.957147 1.13243,2.283613 1.37453,3.874507 0.56532,3.70424 -0.0343,9.246653 -2.00649,15.129799 -3.03439,9.04208 -7.27447,16.91832 -11.8374,24.21852 -0.48617,6.761506 -0.59356,13.583573 -0.50029,19.969332 l 0.0587,2.9958 c 1.69167,-2.30952 3.43659,-4.621186 5.23707,-6.948933 2.17427,-2.81248 4.6478,-5.509906 7.10061,-8.186586 0.94268,-1.027734 1.8816,-2.05384 2.80034,-3.081387 0.80742,-8.680986 2.24681,-19.199426 4.45145,-27.539506 1.22104,-4.625653 2.68937,-8.629346 4.42964,-11.366253 2.06492,-3.254506 4.57688,-4.89616 7.59501,-4.118573 1.2089,0.308387 2.43871,1.03308 3.67404,2.216253 2.42495,2.321667 2.27343,6.735053 0.36558,12.40452 -2.00311,5.945493 -5.95159,13.540506 -10.7711,21.556106 -1.74026,2.892893 -3.94848,5.631947 -6.32286,8.333466 -0.52672,5.971774 -0.73291,10.910454 -0.67056,13.353093 0.0567,2.220894 -0.0364,4.52076 -0.21172,6.852614 2.80444,-2.949694 5.69929,-5.842587 8.61254,-8.756373 2.3081,-2.30756 4.63172,-4.629227 6.91695,-6.987347 0.21584,-1.68952 0.36307,-3.020093 0.43757,-3.886667 0.30946,-3.583266 1.92859,-10.770733 4.23615,-17.467186 h 0.009 c 1.75652,-5.092173 3.9349,-9.961346 6.28087,-12.886759 1.08579,-1.354867 2.35401,-2.267534 3.63599,-2.703494 1.19317,-0.401653 2.40261,-0.40576 3.52502,0.0053 1.0924,0.402013 2.06688,1.191213 2.82052,2.376346 h 0.005 c 0.89997,1.41956 1.49566,3.46428 1.56446,6.14544 0.0787,3.124987 -1.41098,6.86228 -3.53718,10.552933 -3.02814,5.255107 -7.35452,10.486107 -10.11679,13.585186 -1.80245,2.022747 -3.63796,3.98332 -5.48507,5.90744 -0.73488,5.49328 -2.0533,13.909827 -3.8604,22.748755 l 2.0249,-1.612515 c 4.6094,-3.666893 8.69152,-6.914987 10.93029,-9.323667 0.80777,-0.870133 1.88141,-1.865346 3.13356,-2.967573 l 0.17777,-0.707 c 1.26358,-5.01856 2.48927,-9.781426 4.00351,-14.346333 l -0.005,-0.0013 c 1.51193,-4.566867 3.30277,-8.854653 5.6691,-12.844227 1.31824,-2.220893 4.0112,-5.358026 6.75328,-6.987346 1.33612,-0.79152 2.73138,-1.265533 4.08016,-1.19924 1.53248,0.0748 2.90719,0.79116 3.95903,2.390453 1.08025,1.639494 1.7969,4.326373 1.90178,8.426733 0.1894,7.476014 -11.15254,16.971027 -19.69881,24.123813 -1.3102,1.09652 -2.55358,2.135853 -3.66582,3.095147 -1.14707,4.54864 -2.34382,9.232546 -3.65206,14.025249 -0.90265,3.30723 -1.83961,6.58962 -2.81856,9.7916 4.97603,-3.23629 10.28188,-6.6986 15.42408,-10.23185 5.41074,-12.965186 11.84348,-26.398852 17.81525,-32.500332 3.98332,-4.068027 7.8832,-5.222787 11.4245,-1.75636 5.33818,5.229213 2.30148,12.09916 -4.95227,19.506746 -5.37823,5.49328 -13.1653,11.3784 -21.40657,17.075736 -2.59164,6.26872 -4.94172,12.39844 -6.87245,17.4638 l 0.63214,-0.2523 c 5.92174,-2.23714 11.34659,-4.89008 16.47664,-7.76062 1.09793,-1.99095 2.26484,-4.04587 3.48857,-6.10971 3.2622,-5.50133 6.92088,-11.089666 10.59886,-15.648493 2.2777,-2.822493 4.30046,-5.172573 6.37806,-6.876386 2.25128,-1.84712 4.54454,-2.929333 7.20515,-3.01188 h 0.007 c 2.07545,-0.06293 3.61008,0.391467 4.69408,1.206933 1.34665,1.01396 1.94021,2.465493 2.00506,4.132693 0.0501,1.389347 -0.29124,2.941654 -0.8646,4.474307 -1.3847,3.70228 -4.28777,7.5666 -6.04628,8.687416 -2.59468,1.65112 -5.10162,3.3008 -7.61733,4.95441 -5.56404,3.65813 -11.19044,7.35648 -17.21956,10.78271 -2.92344,5.3439 -5.26118,10.09462 -6.61141,13.03969 -0.83833,1.82745 -1.83104,3.83663 -2.92344,5.93032 4.78467,-2.05992 9.63008,-4.04015 14.53821,-6.04521 l 4.09232,-1.67542 c 2.45853,-3.82752 5.13021,-7.67612 8.07939,-11.23509 1.36488,-1.64755 7.80316,-8.41869 14.04954,-12.54745 2.44067,-1.61503 4.89956,-2.85502 7.09259,-3.29098 v -10e-4 c 2.63273,-0.524573 4.91385,0.0224 6.48635,2.18909 0.70254,0.97038 1.22176,2.26486 1.50228,3.92812 0.42184,2.49999 -1.21104,5.46344 -4.42966,8.37652 -2.84232,2.57199 -7.00753,5.23743 -12.08701,7.56124 -6.19011,2.83411 -12.28497,5.39842 -18.28712,7.86499 -1.65361,2.60272 -3.21217,5.19079 -4.70016,7.65789 -3.31688,5.49972 -6.28069,10.41768 -9.20807,13.74118 2.19858,-0.55979 4.68176,-1.15744 7.35095,-1.80103 v -0.001 c 4.0396,-0.9734 8.52143,-2.0558 13.10044,-3.26059 1.66969,-1.69417 4.05372,-4.1754 6.62607,-6.87228 5.2092,-5.45935 11.20526,-11.83276 13.54462,-14.35259 2.28576,-2.45692 4.72839,-3.98332 7.04399,-4.75018 1.86533,-0.61784 3.66849,-0.7515 5.26333,-0.49278 1.68006,0.27248 3.14731,0.97895 4.26206,2.01686 0.85584,0.7976 1.50209,1.78672 1.87748,2.91933 h 0.005 c 3.08693,9.33116 -9.07101,16.01816 -24.10165,20.99025 -4.08822,1.35327 -8.40834,2.59058 -12.68307,3.72766 l -0.87371,0.86548 c -0.12906,0.12506 -0.67253,0.71862 -1.498,1.62521 h -0.005 c -2.421,2.64685 -7.23963,7.92037 -12.87871,13.49852 l -0.49688,0.49081 c 3.5311,-0.57336 7.15351,-1.17906 10.80968,-1.84961 3.92472,-0.72023 7.76028,-1.27179 11.47114,-1.77815 2.02292,-1.63342 3.98546,-3.29526 5.89744,-4.91028 8.8709,-7.49834 16.76072,-14.16873 26.16889,-14.69992 2.13175,-0.11893 3.87399,0.36575 5.20705,1.28787 1.49156,1.03023 2.43263,2.57039 2.81999,4.39571 1.66935,7.86158 -4.13876,9.63169 -9.53735,11.27315 v 0.002 l -0.80332,0.24674 c -1.70166,0.52459 -3.57362,1.10009 -5.64514,1.66934 h -0.005 c -2.08958,0.57586 -4.38088,1.15315 -6.90069,1.67595 -4.42697,0.92266 -9.19805,1.56642 -14.20643,2.23859 l -1.54069,0.20869 c -0.82153,0.65376 -1.65772,1.30806 -2.50552,1.95396 -2.20875,1.68184 -4.51435,3.53717 -6.64448,5.39841 -1.82888,1.59894 -3.53521,3.21003 -4.94583,4.72785 -1.34057,1.44206 -3.00026,3.09568 -4.89794,4.8338 l 3.6299,0.0243 c 5.48346,0.0406 12.37807,0.0886 19.4946,-0.0668 11.90155,-8.27771 25.81746,-17.07215 33.74568,-17.18096 4.51435,-0.0624 7.33076,2.18284 7.40974,7.85587 0.038,2.66651 -1.19122,4.96441 -3.71692,6.80956 h -0.005 c -2.20462,1.60895 -5.43502,2.87056 -9.70048,3.72104 -7.40972,1.47583 -17.14522,2.08314 -26.56698,2.31756 -2.86108,2.00059 -5.59602,3.96259 -8.07992,5.74146 -2.41674,1.73258 -4.60118,3.29508 -6.47259,4.58705 4.29439,0.37379 8.60485,0.83423 12.88871,1.29056 l 2.78193,0.29427 c 11.35071,-6.55138 24.01089,-12.74542 33.49019,-12.20208 3.90185,0.22388 6.68038,2.19857 8.06098,4.72803 0.63411,1.16084 0.97342,2.45121 0.9911,3.74533 0.0143,1.29609 -0.29427,2.61041 -0.94858,3.80769 v 0.009 c -1.38934,2.52982 -4.3085,4.55882 -8.93773,4.92653 -9.80179,0.77687 -20.70367,-0.19243 -31.87837,-1.35934 -3.22826,1.88392 -6.3452,3.78375 -9.22844,5.54224 -3.80572,2.32167 -7.22391,4.40481 -9.98564,5.89494 -0.92642,0.49886 -1.85731,0.98341 -2.7898,1.4535 2.71476,0.52315 5.45076,1.0397 8.16444,1.53659 3.40746,0.62195 6.91694,1.24141 10.49004,1.84104 1.15673,-0.44418 2.344,-0.88372 3.58542,-1.33612 3.27471,-1.19514 7.02576,-2.2309 10.69604,-3.24487 0.98163,-0.26997 2.06135,-0.57139 3.62992,-1.017 3.50072,-0.99735 6.90891,-1.83139 10.35282,-2.26557 3.4791,-0.43792 6.9534,-0.45633 10.51844,0.18797 2.03758,0.36967 3.48108,1.08382 4.51881,2.01685 1.08847,0.97698 1.70168,2.15801 2.07349,3.42372 0.13526,0.46241 0.23192,0.95108 0.27659,1.446 0.14329,1.54016 -0.19815,3.10872 -1.16495,4.46967 -0.92284,1.29645 -2.40064,2.37831 -4.53649,3.00438 h -0.005 c -0.81135,0.23602 -1.73259,0.4138 -2.75978,0.50903 l -0.0992,0.008 h -0.0805 c -4.73447,-0.0607 -9.76588,-0.28712 -14.88735,-0.70504 -4.80129,-0.3895 -9.73944,-0.95071 -14.66132,-1.69971 -2.34597,-0.35752 -4.71428,-0.73738 -7.08454,-1.13099 -1.09598,0.43006 -2.15802,0.86406 -3.20396,1.31842 -2.38796,1.04023 -4.74215,2.20303 -7.27394,3.66832 -1.89785,1.09848 -5.80666,2.90522 -10.64565,4.78467 7.55873,1.7828 15.11729,3.55755 22.7752,5.01909 l 1.55676,0.29481 c 1.41259,-0.37932 2.97151,-0.83369 4.66979,-1.32843 4.69962,-1.36845 10.45162,-3.04654 16.44162,-4.23168 1.05595,-0.20761 3.67243,-0.61928 6.7431,-0.74453 1.93841,-0.0768 4.06658,-0.0425 6.10505,0.22996 6.28481,0.8419 6.04271,3.78142 5.84277,6.24835 l -0.0264,0.3368 c -0.15294,2.13638 -1.42473,4.14305 -3.69816,5.48417 -1.8187,1.07168 -4.31869,1.72598 -7.39346,1.63289 -3.20807,-0.0972 -7.56268,-0.57747 -12.40614,-1.27429 -5.06125,-0.72631 -10.70033,-1.69561 -16.14126,-2.70868 l -1.22319,0.30642 c -6.82421,1.62324 -13.33897,3.69477 -19.81567,5.75415 l -2.85054,0.90444 c 6.34913,1.87553 12.51297,3.91864 18.0427,5.77237 2.19499,-0.52315 4.11858,-1.02004 6.03252,-1.51443 h 0.007 c 5.65284,-1.45814 11.37857,-2.93755 17.17507,-3.62991 2.2493,-0.27086 4.71624,-0.38593 7.16708,-0.25067 2.17641,0.11702 4.34049,0.43399 6.32894,1.00539 3.35994,0.96733 5.51598,2.84679 6.4767,4.94476 0.5369,1.17495 0.70254,2.41225 0.50904,3.60954 -0.19387,1.19532 -0.74703,2.33578 -1.64343,3.3108 -1.67595,1.82532 -4.60743,3.10122 -8.70385,3.03689 l -0.12294,-0.002 -0.0501,-0.006 -1.47191,-0.17421 h -0.005 c -8.88556,-1.05148 -18.61641,-2.20821 -28.37355,-5.4688 l -2.73797,-0.91874 -0.73649,-0.24621 c -2.42691,0.59355 -4.73446,1.24946 -7.03594,1.90179 -3.1416,0.89247 -6.28069,1.78476 -9.67869,2.51571 -2.81856,0.6057 -5.70787,1.18102 -8.64131,1.74224 3.01438,0.8762 6.02894,1.80709 8.99687,2.77799 13.59269,4.45199 26.23733,9.79769 32.99419,14.75817 l -1.04934,1.43331 -1.04988,1.43385 c -0.6559,-0.48278 -1.37524,-0.96751 -2.14604,-1.45815 -6.80992,-4.31619 -17.92602,-8.88306 -29.84741,-12.78741 -5.23081,-1.71454 -10.60707,-3.29722 -15.83841,-4.67389 l -1.54016,0.28266 c -5.83723,1.06971 -11.73396,2.15604 -17.55851,3.3812 v 0.002 l -1.05184,0.22638 v 0.002 c -4.84756,1.04988 -9.77392,2.11959 -14.12816,-1.89768 -1.25393,-1.15691 -1.89572,-2.42298 -2.04152,-3.68673 -0.14346,-1.25553 0.20404,-2.45478 0.92678,-3.50269 0.64429,-0.93446 1.59894,-1.74831 2.75424,-2.36027 2.03848,-1.07561 4.80236,-1.56445 7.64718,-1.00128 6.78526,0.69093 15.71746,2.47372 25.1292,4.92046 5.30587,-0.97751 10.55901,-1.96468 15.70531,-3.0687 3.2438,-0.697 6.34949,-1.58071 9.45624,-2.46353 l 1.85516,-0.52476 c -5.67696,-1.87142 -11.81651,-3.81984 -17.99839,-5.51133 -5.90709,1.67737 -11.59834,2.89699 -16.69801,3.65778 -6.62215,0.99163 -12.30732,1.21336 -16.24008,0.67663 -2.37635,-0.32322 -4.29832,-1.76064 -5.2292,-3.54736 -0.47009,-0.89604 -0.70059,-1.89179 -0.63572,-2.88288 0.0663,-1.01951 0.44007,-2.03508 1.16495,-2.94363 h 0.005 c 1.40687,-1.7626 4.23149,-3.14714 8.93719,-3.30062 h 0.0505 c 8.51588,-0.0364 18.60837,1.96201 28.6017,4.65138 0.86852,-0.25478 1.74063,-0.51654 2.61684,-0.78955 2.68687,-0.83779 4.1552,-1.30413 5.45272,-1.71597 4.65407,-1.47994 9.32563,-2.96382 14.0333,-4.2742 -6.01983,-1.26357 -11.95319,-2.66294 -17.88511,-4.06176 l -4.60279,-1.0824 c -4.35925,1.48441 -9.04707,2.85501 -13.49494,3.77981 -7.90359,1.64093 -15.20432,1.87749 -19.07633,-1.05809 l -0.004,0.006 c -1.33843,-1.0154 -2.08958,-2.21071 -2.35598,-3.4566 -0.26246,-1.23534 -0.0361,-2.46854 0.56764,-3.58738 0.54711,-1.01147 1.41116,-1.93217 2.49088,-2.66294 l 10e-4,0.004 c 1.8857,-1.27572 4.51273,-2.0349 7.30448,-1.75242 l 0.11133,0.0143 c 8.31577,1.38311 16.34084,3.16393 24.29498,5.02106 6.84655,-2.38028 12.69932,-4.98514 15.1198,-6.38611 2.0031,-1.16084 3.90239,-2.13979 5.7981,-3.02207 -1.68559,-0.29874 -3.36958,-0.59963 -5.03892,-0.90658 -4.61296,-0.84388 -8.93774,-1.67184 -12.9818,-2.463 -3.72675,1.63753 -7.4067,3.02617 -10.86953,4.13287 -6.56587,2.09779 -12.38219,3.18573 -16.25616,3.07424 -1.69972,-0.0481 -3.85844,-0.73024 -5.53384,-1.81871 -1.58466,-1.03166 -2.82446,-2.47104 -3.08283,-4.18701 l -0.004,-0.0264 v -0.0141 c -0.26425,-1.83693 0.41792,-3.71496 2.11209,-5.23493 h 0.005 c 0.86192,-0.77329 1.99845,-1.456 3.41353,-1.98272 -0.53083,-0.067 -1.05148,-0.14955 -1.56248,-0.25425 -2.0592,-0.41792 -3.47644,-1.23731 -4.36123,-2.24735 -0.77078,-0.87978 -1.1426,-1.89571 -1.18102,-2.93148 -0.0359,-0.97483 0.23853,-1.95592 0.74757,-2.84017 0.73881,-1.28609 2.01275,-2.39672 3.55951,-2.99223 l 0.87764,-0.32876 c -2.71118,-0.33537 -4.48379,-1.81531 -5.38232,-3.73318 -0.43598,-0.93446 -0.6518,-1.97022 -0.65378,-3.01403 h -0.005 c 0,-1.012 0.20351,-2.05777 0.59767,-3.03225 l 0.001,0.002 c 0.49832,-1.23177 1.30001,-2.37027 2.38599,-3.2572 -1.30414,-0.19333 -2.45282,-0.73631 -3.39996,-1.69364 -0.60516,-0.61177 -1.11223,-1.36434 -1.45511,-2.19249 v -0.007 c -0.46044,-1.11831 -0.64429,-2.40064 -0.39808,-3.70495 0.20155,-1.06757 0.68628,-2.14996 1.52657,-3.15732 -1.13045,0.17367 -2.16014,0.1676 -3.02474,-0.0461 -1.35434,-0.33126 -2.33578,-1.11063 -2.79372,-2.39654 h -10e-4 c -0.29928,-0.84226 -0.32714,-1.85569 -0.0243,-3.04493 0.56728,-2.22644 1.44545,-4.05998 2.55161,-5.58995 -2.93952,0.91213 -5.46487,0.59963 -7.06577,-0.8721 l -0.001,0.002 -0.0404,-0.0365 -0.0345,-0.0425 c -0.44025,-0.41988 -0.79563,-0.9223 -1.06203,-1.47744 -0.69038,-1.44403 -0.81404,-3.31545 -0.32929,-5.22724 v -0.005 c 0.28105,-1.10617 0.77132,-2.24878 1.47225,-3.34333 -2.58252,1.32843 -4.8438,1.49567 -6.51725,0.58355 -0.24817,-0.13526 -0.49028,-0.30088 -0.71469,-0.48671 h -0.005 c -1.3947,-1.16691 -2.00256,-3.33313 -1.44742,-6.01804 0.3125,-1.5264 1.0154,-3.27275 2.17016,-5.12397 -2.66902,2.27914 -4.8029,3.42372 -6.43007,3.7246 -1.74027,0.32322 -3.07084,-0.1474 -4.00727,-1.20139 -0.81188,-0.91212 -1.21746,-2.23305 -1.23569,-3.78321 -0.0143,-1.11831 0.17975,-2.4144 0.56515,-3.79768 -0.37522,0.10893 -0.75919,0.18796 -1.1487,0.2346 -0.87817,0.10493 -1.79297,0.0501 -2.66704,-0.16814 v -0.001 c -0.88836,-0.22173 -1.74438,-0.6132 -2.49552,-1.17299 v -0.005 c -1.44742,-1.08168 -2.53376,-2.77943 -2.81445,-5.11789 -0.0561,-0.4801 -0.0865,-0.94447 -0.0967,-1.39275 -1.26768,0.81135 -2.57449,1.26768 -3.79554,1.3002 -0.49886,0.012 -0.98716,-0.0447 -1.44546,-0.16564 l -0.0143,-0.005 c -0.24675,-0.0665 -0.49279,-0.16116 -0.73899,-0.28266 v 0.001 c -1.40705,-0.69236 -2.8266,-2.3926 -3.63796,-4.60886 v -0.005 c -0.49688,-1.36095 -0.79365,-2.9456 -0.73488,-4.63727 -0.41023,0.52262 -0.84637,0.97287 -1.3002,1.35219 -1.82943,1.52855 -3.94293,1.98237 -5.90959,1.58536 -1.92001,-0.38593 -3.6785,-1.5934 -4.84541,-3.39799 -1.18711,-1.83282 -1.7828,-4.2944 -1.31825,-7.1083 -0.74256,1.48137 -1.62931,2.63828 -2.57395,3.46838 h -0.005 c -1.40134,1.2291 -2.96383,1.81103 -4.45592,1.75439 -1.5909,-0.0608 -3.04602,-0.82404 -4.11823,-2.26949 -1.3102,-1.77011 -2.02936,-4.67372 -1.54676,-8.64292 -0.60571,2.1362 -1.42724,4.06836 -2.31953,5.59441 -1.26768,2.16621 -2.80444,3.64009 -4.2742,3.97475 v 0.001 c -0.46848,0.10733 -0.93284,0.11347 -1.3831,0.0161 h -0.005 c -1.50979,-0.33073 -3.28865,-2.62202 -3.96475,-6.29034 -0.434,-2.36616 -0.50493,-5.41932 0.17367,-8.94382 0.92035,-4.785196 3.48465,-10.329049 6.563,-16.623503 -0.63572,-3.407999 -1.23535,-6.922839 -1.78225,-10.445906 -0.50298,-3.230387 -0.9593,-6.456506 -1.35899,-9.602213 -2.40619,5.4086 -4.72589,10.773053 -6.74721,15.844493 2.26342,13.05024 3.26685,24.400409 1.04594,29.781129 -1.53872,3.73264 -4.26954,5.14576 -8.56448,3.37316 -2.43066,-1.00093 -3.3812,-2.36224 -3.57326,-4.37658 l -0.0404,0.1252 c -0.51262,1.528 -1.23946,2.82605 -2.14603,3.73264 l -0.009,0.009 c -1.09402,1.09401 -2.42299,1.647 -3.94295,1.46583 -0.84173,-0.0988 -1.71597,-0.43614 -2.59825,-1.04791 -1.054,-0.72881 -1.87143,-1.66791 -2.48516,-2.79623 -0.20619,1.41955 -0.61196,2.68527 -1.18317,3.71282 -0.66198,1.18728 -1.55695,2.09332 -2.64275,2.60844 -1.13903,0.54084 -2.43708,0.64161 -3.84216,0.196 -1.41295,-0.45222 -2.93703,-1.48406 -4.48379,-3.22218 -0.0143,1.51443 -0.2421,2.73744 -0.62393,3.68816 -0.63357,1.58322 -1.68363,2.56216 -2.94577,2.99223 -1.23123,0.41988 -2.59415,0.28051 -3.9165,-0.34288 -0.8235,-0.39004 -1.64754,-0.98769 -2.4169,-1.76868 -0.14472,1.35023 -0.51655,2.52536 -1.04988,3.48465 -0.95411,1.72187 -2.43263,2.81838 -4.11804,3.11874 l -0.005,0.005 c -1.5666,0.27712 -3.26434,-0.13919 -4.83541,-1.37649 -0.0467,0.52476 -0.1292,1.02361 -0.24211,1.49352 h -10e-4 c -0.46848,1.9443 -1.50013,3.44856 -2.76584,4.18557 h -0.005 c -0.28928,0.16564 -0.5814,0.29679 -0.8646,0.38129 v 0.001 c -0.47259,0.14114 -0.97091,0.21012 -1.47334,0.21012 -0.85244,0 -1.76457,-0.20208 -2.69134,-0.58551 0.0521,0.46597 0.0825,0.93248 0.0825,1.39883 0,2.91538 -0.75864,5.05964 -1.93984,6.49706 -0.935,1.13654 -2.12209,1.82888 -3.41015,2.10994 -1.23569,0.26997 -2.56162,0.15098 -3.8461,-0.30946 l -0.49028,-0.19332 c 0.0725,0.48455 0.11293,0.94911 0.1212,1.38667 0.0243,1.53463 -0.3393,2.85501 -1.12046,3.78983 -0.8989,1.07829 -2.20714,1.59286 -3.94133,1.34218 -2.30345,-0.33465 -5.67089,-2.29737 -10.18505,-6.70414 l 0.75508,0.84333 c 2.225,2.54591 3.80768,4.96692 4.69801,7.01772 h 0.003 c 1.04774,2.41064 1.183,4.48825 0.37933,5.93371 -0.21031,0.37736 -0.47617,0.70861 -0.79367,0.9852 -0.19546,0.1717 -0.4113,0.32501 -0.62964,0.45633 l -0.0141,0.005 c -1.66791,0.97895 -4.0078,0.82351 -6.7188,-0.51457 0.57925,0.93035 1.00128,1.89161 1.26768,2.83214 0.51904,1.83943 0.45276,3.65617 -0.17116,5.08805 -0.25693,0.58944 -0.60981,1.12028 -1.05007,1.56249 v 0.007 l -0.007,0.005 c -1.54874,1.54891 -4.09232,1.95914 -7.09063,1.14118 1.13261,1.46779 2.04527,3.23826 2.66723,5.39841 0.32912,1.14868 0.33108,2.14603 0.0603,2.98829 -0.41577,1.30002 -1.37256,2.10941 -2.71117,2.48319 -0.89033,0.24818 -1.96861,0.2882 -3.15982,0.13311 l 0.32768,0.29088 c 2.54554,2.41279 2.89289,5.27137 -0.32375,8.65864 l -0.004,-0.002 c -0.90819,0.95929 -2.02847,1.5205 -3.3108,1.75046 1.08383,0.83404 1.89964,1.91644 2.42691,3.09764 0.42345,0.9525 0.65788,1.97826 0.68628,2.98758 0.0284,1.03166 -0.15544,2.06546 -0.56514,3.00384 -0.84834,1.9445 -2.59682,3.47304 -5.3282,3.87862 l 0.77742,0.19404 c 1.65164,0.44418 2.98972,1.16691 3.8645,2.07135 l -0.003,0.002 c 0.74256,0.76668 1.17905,1.66719 1.24141,2.65435 0.0573,0.96394 -0.24407,1.95307 -0.96072,2.90772 -0.84941,1.13296 -2.36365,2.25342 -4.64941,3.24094 v 0.008 c -0.47671,0.20547 -0.96895,0.38289 -1.47531,0.53476 1.31021,0.50654 2.38796,1.16691 3.22772,1.9059 v 0.008 c 1.73616,1.53623 2.52161,3.45821 2.32364,5.25119 v 0.0141 l -0.007,0.0502 -0.007,0.0141 c -0.21978,1.70793 -1.47334,3.27899 -3.08032,4.44376 -1.00592,0.7288 -2.18499,1.32646 -3.33367,1.714 2.02347,0.0931 3.88273,0.70648 5.318,1.61914 1.08187,0.68878 1.95844,1.5666 2.52179,2.54197 0.63196,1.09204 0.88425,2.29933 0.65429,3.52717 h -0.001 c -0.23246,1.24124 -0.95322,2.45085 -2.26556,3.49055 -3.7859,3.00991 -11.0836,2.99991 -19.022015,1.6252 -4.470206,-0.77526 -9.196628,-1.98273 -13.595365,-3.3133 l -4.578303,1.21024 c -5.879038,1.55695 -11.759685,3.11479 -17.67535,4.53042 4.748756,1.14457 9.375837,2.44281 13.985229,3.73479 v 0.002 l 5.527053,1.53872 c 0.88282,0.2421 1.762604,0.47652 2.637205,0.69843 9.922932,-2.95774 19.968796,-5.24296 28.484676,-5.46684 h 0.0425 c 4.70408,0.006 7.56052,1.28591 9.01616,2.97758 0.75061,0.87407 1.15476,1.86927 1.24947,2.87931 0.0927,0.98859 -0.1088,1.97826 -0.54888,2.87662 -0.88229,1.80102 -2.76585,3.28257 -5.13219,3.67244 -3.91257,0.64786 -9.60365,0.60373 -16.251697,-0.1676 -5.10628,-0.59158 -10.821833,-1.62127 -16.773413,-3.093 -6.113634,1.84908 -12.18421,3.95295 -17.794882,5.96427 l 1.772609,0.43542 c 3.131592,0.77151 6.266579,1.54891 9.525743,2.13639 5.698937,1.02558 11.86671,1.94789 18.093266,2.8768 l 3.242012,0.48474 c 5.915492,-2.49748 12.268722,-4.65352 19.312712,-6.42006 l 0.0284,-0.008 c 2.88091,-0.67807 5.72573,-0.26891 7.82764,0.76686 1.15476,0.56925 2.11548,1.34272 2.77388,2.24323 0.74096,1.01182 1.11062,2.18427 0.99717,3.43033 -0.1168,1.25553 -0.72665,2.52929 -1.94628,3.70424 -4.24329,4.08624 -9.18805,3.18627 -14.05169,2.29791 v -0.002 l -1.04988,-0.18797 v 0.004 c -4.45341,-0.78366 -8.95542,-1.48602 -13.439745,-2.16212 -1.885531,0.81529 -3.724607,1.66112 -5.525624,2.54537 -5.80614,2.84858 -11.255293,6.07719 -16.627439,9.62455 l 76.558468,0.0259 c -8.31184,-7.48209 -15.03832,-16.4234 -19.8984,-26.2779 -5.85688,-11.87528 -9.02028,-25.07292 -9.02028,-38.63988 0,-24.11971 9.77804,-45.96027 25.58608,-61.76636 15.80536,-15.80804 37.64611,-25.58553 61.76581,-25.58553 24.1199,0 45.96046,9.77945 61.76654,25.58553 15.80805,15.80609 25.58536,37.64665 25.58536,61.76636 0,12.53316 -2.70152,24.77829 -7.75652,35.96676 -5.05519,11.18686 -12.46688,21.30991 -21.87863,29.59513 l -4.70016,-5.34213 c 8.65311,-7.61698 15.46071,-16.91224 20.09797,-27.17233 4.63727,-10.26169 7.11439,-21.51341 7.11439,-33.04743 0,-22.15556 -8.97972,-42.21548 -23.49776,-56.73154 -14.5182,-14.5175 -34.57544,-23.49775 -56.73119,-23.49775 -22.15519,0 -42.21546,8.98025 -56.73153,23.49775 -14.51749,14.51606 -23.49776,34.57598 -23.49776,56.73154 0,12.4892 2.90147,24.61463 8.26968,35.49829 5.72771,11.61281 14.34436,22.52881 25.42795,29.42342 l 69.69888,0.0223 c 0.0987,-3.77928 0.16956,-7.82907 0.17777,-11.73199 0.0107,-3.77713 -0.0345,-7.45975 -0.15955,-10.67746 -0.29481,-7.51658 -2.06545,-14.61523 -5.20258,-20.97454 -2.92791,-5.92978 -7.05667,-11.22939 -12.29767,-15.64242 -0.85388,-0.49081 -1.71383,-1.00181 -2.57592,-1.53051 l -0.001,0.004 c -2.58611,-1.59144 -5.21116,-3.38174 -7.71812,-5.34034 -2.0031,-1.56642 -3.99155,-3.2363 -5.76021,-4.98461 -1.82479,-1.80459 -3.43446,-3.70441 -4.62298,-5.67857 -1.83765,-3.05101 -3.11748,-6.40844 -3.68869,-9.8302 -0.54709,-3.28703 -0.44025,-6.64643 0.44364,-9.86665 1.36739,-4.97853 3.96117,-8.89521 7.25213,-11.70769 3.59596,-3.0687 8.01953,-4.81897 12.59409,-5.20437 5.70948,-0.48277 11.75611,1.02755 17.12432,3.95903 5.36394,2.92951 10.08035,7.29769 13.13082,12.52922 1.73205,2.96936 3.53521,6.19815 4.80344,9.85593 1.18906,3.43426 1.88356,7.18942 1.56998,11.3566 5.77631,4.24579 9.46894,9.84789 11.21742,16.65996 1.77261,6.91087 1.51586,15.04064 -0.61195,24.22101 l 0.54905,37.86856 -3.54932,0.0404 -0.52065,-35.92853 -0.20404,-0.77151 c -2.257,-8.57002 -13.04792,-13.34254 -24.60607,-18.45472 -1.69613,-0.7506 -3.41013,-1.50585 -5.14218,-2.29951 z m -61.98826,-145.886062 0.15955,0.644293 M 116.90031,259.12309 c -4.68372,1.17513 -9.05316,2.52375 -13.17942,4.03407 2.51767,0.39915 5.03338,0.81349 7.5364,1.25356 l 0.007,0.006 1.06203,0.19135 h 0.007 c 3.97332,0.72488 8.01489,1.46226 10.95048,-1.36434 0.56317,-0.54298 0.83761,-1.03987 0.87621,-1.46368 0.0304,-0.33734 -0.0927,-0.68682 -0.33072,-1.01147 -0.32161,-0.4381 -0.83422,-0.84029 -1.47852,-1.15672 -1.42509,-0.70308 -3.39977,-0.97145 -5.44861,-0.48885 z m -65.903162,-2.0249 c -1.588935,-0.25818 -3.19788,-0.49885 -4.817188,-0.72058 -4.120545,-0.56729 -8.362408,-1.02772 -12.561568,-1.39293 -0.724695,-0.0627 -1.613054,-0.16402 -2.511062,-0.26694 -3.1198,-0.35288 -6.311068,-0.71451 -9.133736,0.17778 -2.263422,0.71666 -3.627765,1.87553 -4.146988,3.0871 -0.218337,0.51101 -0.280516,1.03559 -0.187784,1.51979 0.09505,0.49082 0.355379,0.97555 0.771328,1.39936 1.060064,1.07829 3.054407,1.79906 5.971771,1.68614 l 1.391321,-0.20673 c 7.982549,-1.18049 16.663888,-2.46639 25.223906,-5.28299 z M 110.3952,244.59345 c -6.39576,0.1692 -13.766894,1.57213 -21.317414,3.56308 3.506805,0.7004 6.874424,1.22963 10.011376,1.59287 6.341618,0.73684 11.687508,0.78955 15.279358,0.196 1.18513,-0.19404 2.10744,-0.893 2.51571,-1.72615 0.15741,-0.32161 0.23192,-0.66252 0.20154,-0.9836 -0.0279,-0.29874 -0.16117,-0.61177 -0.41381,-0.90408 -0.84387,-0.98359 -2.78764,-1.72848 -6.27676,-1.73812 z m -66.799201,-4.19166 c -4.157172,-1.04577 -8.935768,-2.18838 -13.83175,-2.99008 -0.979124,-0.15956 -3.395491,-0.45794 -6.220124,-0.48421 -1.76046,-0.0163 -3.680473,0.0724 -5.493641,0.36914 -1.290016,0.2103 -2.32578,0.52887 -3.116763,0.92695 h -0.0061 c -0.761266,0.38129 -1.267623,0.82958 -1.540635,1.30413 l 0.002,0.002 c -0.231916,0.41381 -0.300348,0.89855 -0.215836,1.41098 v 0.006 c 0.06039,0.37539 0.203686,0.78366 0.415949,1.20747 0.352879,0.70451 1.636819,1.11635 3.20592,1.35077 1.951998,0.28819 4.249724,0.2421 6.115065,0.12721 3.042971,-0.186 7.26232,-0.77955 11.996425,-1.59948 2.75781,-0.47812 5.69733,-1.03112 8.689558,-1.63092 z m 38.385096,-9.29275 c 7.330752,-1.92448 14.703849,-3.78375 22.246325,-5.31998 -3.59149,-0.13168 -8.345608,-1.11223 -13.635206,-2.73136 -3.775886,-1.15476 -7.843899,-2.63917 -11.972663,-4.3714 -4.126261,0.92677 -8.422619,1.87749 -12.76561,2.79819 -1.626813,0.34555 -3.274352,0.69235 -4.939579,1.0338 1.893214,0.80527 3.788928,1.69828 5.78184,2.7562 v 0.008 c 2.452816,1.3036 8.372592,3.69013 15.284893,5.82633 z m 24.832795,-2.20661 c -6.12722,1.19675 -12.111138,2.61183 -18.036988,4.11804 2.456925,0.62196 4.938149,1.16691 7.347012,1.58536 7.051486,1.21909 13.358616,1.36649 16.211676,-0.90265 0.59765,-0.47241 0.9105,-0.93696 0.98698,-1.35469 v -0.008 c 0.0648,-0.34948 -0.0237,-0.7288 -0.23442,-1.09187 -0.27408,-0.47455 -0.74452,-0.93088 -1.35434,-1.31842 -1.25749,-0.79759 -3.02421,-1.24999 -4.91992,-1.02755 z m -59.440577,-7.36309 c -2.546082,-0.72487 -5.263333,-1.37721 -7.940562,-2.01685 l -3.665823,-0.88676 c -3.399957,-0.84333 -6.674845,-1.53426 -9.87469,-1.83103 -3.153747,-0.29267 -6.280872,-0.21369 -9.456954,0.45025 -1.312171,0.27659 -2.179805,0.70665 -2.74155,1.23588 -0.510468,0.48063 -0.807779,1.10009 -0.989131,1.77618 l -0.0061,0.008 c -0.06628,0.24818 -0.11292,0.51315 -0.12704,0.77151 v 0.008 c -0.04252,0.70254 0.123107,1.3974 0.552992,1.9645 h 0.0083 c 0.482594,0.63626 1.31628,1.18121 2.573777,1.52212 v 0.002 c 0.613919,0.16402 1.322534,0.28462 2.122092,0.33733 4.570977,-0.19958 9.474644,-0.5714 14.534291,-1.13457 4.731961,-0.52726 9.571303,-1.21962 14.370267,-2.08975 z m 31.583572,-6.56746 3.274352,-0.74096 3.472856,-0.80796 c 3.429975,-0.80313 6.662695,-1.56231 9.811977,-2.05062 -1.251958,-0.32161 -2.527858,-0.69897 -3.819839,-1.12492 -5.004973,-1.64951 -10.31226,-4.0355 -15.466602,-6.64233 -1.060064,0.57336 -2.859116,0.60374 -5.669456,0.6543 -2.658467,0.0486 -6.535124,0.119 -12.006074,0.70058 2.776034,1.37506 5.398589,2.71707 7.786546,3.94079 1.999165,1.02362 3.838063,1.96451 5.661415,2.86466 2.30541,1.13654 4.63923,2.21071 6.954825,3.20646 z m 7.555165,1.91537 -1.776719,0.41434 c 2.368124,0.88996 4.679789,1.68559 6.886036,2.36026 5.8735,1.79834 10.952443,2.75977 14.261633,2.56377 1.06615,-0.0629 2.50767,-0.65841 3.68459,-1.51193 0.88442,-0.64214 1.55641,-1.37149 1.64504,-1.99505 h -0.004 l 0.005,-0.0506 h 0.001 c 0.0668,-0.66395 -0.31857,-1.46119 -1.13849,-2.18838 l -0.004,0.004 c -1.04595,-0.92016 -2.70707,-1.66933 -4.98424,-1.962 v 0.004 l -0.26694,-0.0323 v -0.004 c -5.72424,-0.55285 -11.621145,0.8299 -18.30957,2.39829 z M 45.841196,202.92292 c -9.788034,-4.2499 -19.967182,-7.61538 -27.511627,-6.98538 -0.997707,0.0825 -1.888211,0.27659 -2.65132,0.55103 -1.297699,0.46651 -2.291296,1.17298 -2.924868,1.98487 -0.551563,0.70665 -0.817963,1.50371 -0.75525,2.27111 0.01823,0.23602 0.07236,0.47812 0.155446,0.71058 l -0.0061,0.002 c 0.296775,0.82153 1.12242,1.51997 2.206784,2.06331 1.452965,0.72898 3.312766,1.14261 5.101635,1.21908 3.956523,0.17635 9.803757,-0.16706 16.167177,-0.74846 3.321521,-0.30285 6.791876,-0.67466 10.218099,-1.0681 z m 29.850986,-3.58381 0.224412,0.0282 c 0.315,0.0386 1.930199,-0.0161 4.265984,-0.0926 5.162563,-0.1717 13.696137,-0.45436 21.047082,-0.0684 -3.345822,-0.97144 -6.727021,-2.47319 -9.989758,-4.26402 -3.688694,-2.02329 -7.242131,-4.42554 -10.419641,-6.84798 -2.418511,0.0745 -5.83455,0.30642 -9.852,0.57729 -3.975283,0.26801 -8.533932,0.57336 -13.311097,0.81135 2.707601,1.64147 6.148118,3.48465 9.790178,5.43701 l 4.443763,2.3926 c 1.247491,0.6802 2.517137,1.35845 3.801077,2.0265 z m 34.563828,4.58098 c -6.28891,-1.69364 -19.526575,-1.42723 -27.665105,-1.17102 3.450522,1.60144 6.904797,3.02618 10.220063,4.11876 6.506715,2.14443 12.397902,2.98204 16.455912,1.23159 l 0.001,0.006 c 1.67987,-0.72237 2.71511,-1.44707 3.21414,-2.11155 0.17564,-0.23406 0.2521,-0.42399 0.2446,-0.55907 v -0.005 c -0.007,-0.10953 -0.0952,-0.25032 -0.24264,-0.4038 l -0.008,-0.005 c -0.42399,-0.43811 -1.19532,-0.82404 -2.2209,-1.09848 z m -63.873972,-17.6146 c -4.627616,-2.84089 -11.334266,-6.65662 -17.499537,-9.20824 -3.385843,-1.39937 -6.57604,-2.40476 -9.079599,-2.6088 -1.935737,-0.15759 -3.347249,0.1717 -3.83967,1.22962 h -0.0061 c -0.189929,0.40577 -0.292665,0.9609 -0.292665,1.67345 0,1.59697 0.910693,3.27685 2.723325,4.69801 h 0.0061 c 1.815133,1.42581 4.491825,2.57449 8.027574,3.15589 5.646228,0.93035 12.716476,1.16281 19.960572,1.06007 z m 35.605132,-1.79495 0.304815,-0.002 c 4.169322,0 8.578243,0.2907 12.986093,0.57926 3.175545,0.20815 6.351092,0.41595 9.450162,0.51261 -5.90137,-2.66865 -12.836005,-7.89786 -19.243914,-13.42348 -2.209285,-0.33484 -3.941336,-0.64841 -4.962985,-1.02165 -4.283672,-0.0107 -9.333133,-0.22227 -14.697239,-0.63769 0.991096,0.75275 1.976654,1.52605 2.931479,2.30148 1.964504,1.59894 3.809655,3.22022 5.351776,4.76431 2.005241,2.00881 4.724457,4.45752 7.879813,6.92713 z m 13.068461,4.1268 c -2.694917,-0.17635 -5.392335,-0.35359 -8.045264,-0.4624 1.907865,1.29198 3.902385,2.53125 5.941932,3.6501 5.333729,2.92737 10.938331,5.01105 15.956871,5.01105 1.95254,0 3.10123,-0.7917 3.55952,-1.84105 0.196,-0.45079 0.28463,-0.96733 0.27051,-1.49066 -0.0137,-0.54692 -0.14544,-1.11206 -0.37932,-1.63932 -0.65037,-1.45725 -2.13424,-2.64846 -4.31423,-2.64846 -4.16932,0 -8.580562,-0.29124 -12.990019,-0.57926 z m -41.983024,-23.01176 -0.14133,-0.10471 c -9.813942,-7.23605 -18.501354,-13.63788 -27.622583,-13.86426 -1.383104,-0.0345 -2.319525,0.35556 -2.89896,0.95929 -0.433996,0.45223 -0.705043,1.04792 -0.832079,1.68203 v 0.007 c -0.141329,0.69898 -0.119173,1.45154 0.03235,2.13388 0.202079,0.90855 0.59766,1.64754 1.076323,1.87785 h 0.0061 c 5.626396,2.71529 14.52357,4.86168 24.12775,6.40183 2.061344,0.33126 4.153063,0.63411 6.252464,0.90659 z m 33.891127,3.17823 1.843542,0.2639 c 4.992287,0.71665 11.525804,1.65361 17.184714,3.10318 -0.34501,-0.2321 -0.68431,-0.4742 -1.0195,-0.72077 -5.243146,-3.85378 -9.787143,-9.10496 -12.915162,-12.72112 l -0.43203,-0.50082 c -2.943628,-0.80938 -7.439027,-1.73419 -12.674488,-2.80997 -2.436556,-0.50083 -5.031237,-1.0338 -7.707929,-1.60502 2.147821,2.17838 5.226705,5.25726 8.769958,8.61451 2.16837,2.05277 4.522379,4.22757 6.950895,6.37611 z m 27.402816,10.68354 c -3.39138,-3.21807 -13.96057,-5.10378 -22.349244,-6.35735 9.286684,7.66148 18.541564,13.5507 21.900964,10.00334 v -0.005 c 1.4576,-1.53408 1.41508,-2.72314 0.44828,-3.63991 z m -54.704146,-31.98541 -2.501593,-2.43512 c -5.410559,-5.28085 -11.539917,-11.34588 -13.902147,-13.71419 -1.855692,-1.8573 -3.761054,-2.99026 -5.529733,-3.5311 -1.352729,-0.41578 -2.618445,-0.48278 -3.704237,-0.27855 -0.991632,0.18779 -1.831393,0.61588 -2.431196,1.21551 h -0.008 c -0.391472,0.3895 -0.684673,0.86602 -0.845836,1.39489 -1.926089,6.2848 8.015068,11.18489 20.517851,15.01688 2.711534,0.83155 5.542242,1.60699 8.404931,2.33168 z m 33.957951,7.61341 c 0.626068,0.19136 1.177095,0.37522 1.639499,0.55907 2.198564,0.87228 4.885436,1.45975 7.633426,2.05938 2.24073,0.48831 4.52648,0.98716 6.71433,1.66129 l -0.44776,-0.43774 h -0.008 l -0.0749,-0.0749 v -0.009 c -2.74565,-2.74977 -5.98606,-7.04202 -9.09067,-11.70966 -0.686818,-1.03183 -1.367024,-2.08367 -2.035616,-3.14374 -6.754891,-2.86662 -13.595187,-5.73378 -20.568416,-8.64506 l 1.677556,2.31005 c 4.643876,6.3938 8.721896,12.01055 12.101664,14.8534 0.641613,0.54084 1.463149,1.43688 2.45889,2.57592 z m 8.521965,6.09488 c -1.34684,-0.29267 -2.677232,-0.58748 -3.971356,-0.91463 2.559666,2.80623 5.608166,5.86886 8.901286,8.28737 3.20199,2.36223 6.82832,4.00977 9.5111,4.46199 0.87405,0.1474 1.60304,0.16152 2.10189,0.0223 0.16903,-0.0466 0.27801,-0.10077 0.29213,-0.14544 0.0547,-0.16956 0.0243,-0.47652 -0.10493,-0.92874 -2.18641,-7.60519 -9.69835,-9.2488 -16.73018,-10.78288 z M 66.565057,127.01822 c -1.272327,-1.57304 -2.578423,-3.12141 -3.912569,-4.62155 -1.350764,-1.51442 -7.488163,-7.9243 -13.308597,-11.74164 -2.027396,-1.32842 -3.983323,-2.3256 -5.592984,-2.62898 -1.156725,-0.21584 -2.101367,-0.0264 -2.648283,0.78758 l -0.0041,-0.001 c -0.351449,0.52529 -0.617849,1.30628 -0.773295,2.37635 -0.165629,1.14868 1.110092,2.80033 3.421756,4.6637 2.754058,2.22287 6.852447,4.52828 11.770407,6.57355 l 6.509215,2.7076 4.538459,1.88552 z m 33.804473,14.17069 c 6.33698,2.69331 12.63607,5.3984 18.9593,8.15622 -0.76062,-0.76526 -1.53444,-1.59698 -2.3156,-2.49552 -2.63667,-3.02814 -5.41467,-6.86424 -8.15211,-11.51562 -0.65233,-1.10866 -1.82943,-3.80554 -3.40604,-7.52265 -1.17709,-0.58747 -2.38849,-1.12439 -3.62991,-1.54427 -4.393195,-1.48601 -8.519815,-3.17608 -12.452574,-4.99889 1.926088,3.41819 3.482504,6.36949 4.51005,8.4328 1.697746,3.40192 3.989577,7.47208 6.486884,11.48793 z m 18.98574,12.04074 c -5.14827,-2.25128 -10.31083,-4.47807 -15.51128,-6.70111 2.70314,3.96724 5.43504,7.52264 7.74849,9.83823 l 0.004,-0.004 0.0749,0.0743 -0.004,0.004 c 2.92738,2.91325 5.84867,4.75072 8.2854,5.56868 2.00864,0.67413 3.54683,0.6518 4.24723,-0.0486 l 0.007,-0.005 0.004,0.004 c 0.1256,-0.12704 0.23246,-0.2907 0.31143,-0.47241 0.29624,-0.68235 0.30035,-1.65165 10e-4,-2.70975 -0.33161,-1.17495 -1.03558,-2.41422 -2.11798,-3.49251 -0.80527,-0.80332 -1.82531,-1.51997 -3.05047,-2.05492 z M 79.962275,112.43943 79.66961,111.97899 c -3.323129,-5.19436 -7.023793,-10.4475 -10.69569,-14.689199 -2.216968,-2.556267 -4.268664,-4.817 -6.265151,-6.4038 -1.794407,-1.4258 -3.532712,-2.291827 -5.307286,-2.291827 -1.177094,0 -1.934844,0.20404 -2.360263,0.549414 -0.373783,0.302493 -0.531193,0.83172 -0.529228,1.473333 0.002,0.912667 0.30696,2.02132 0.779548,3.163933 1.301987,3.14732 3.721033,6.297136 5.041422,7.072406 2.856436,1.67754 4.915815,2.91932 7.009499,4.17896 4.140377,2.49337 8.303624,5.00497 12.619814,7.40722 z m 28.254555,12.8001 c 0.9675,0.51708 1.90786,1.04792 2.82069,1.56642 l 0.001,-10e-4 1.52604,0.85799 -0.003,0.004 c 5.84884,3.2404 10.62582,6.87066 14.25377,10.35925 l -0.64179,-0.69021 c -4.47825,-4.86222 -6.59622,-10.58582 -8.8977,-16.80791 l 0.004,-0.001 -0.49636,-1.33862 -0.008,-0.009 -0.17831,-0.48027 -2.76532,-1.67988 c -3.98761,-2.41636 -8.20499,-4.9746 -12.41881,-7.6093 2.32775,5.24565 4.42358,10.19934 6.15224,14.28754 l 0.64965,1.54284 z m 2.60844,5.52348 -0.31304,-0.17563 c 0.62606,1.41561 1.10456,2.43459 1.40901,2.95363 2.59468,4.40534 5.24547,8.06366 7.77743,10.97085 2.94149,3.37959 5.68661,5.69768 7.96629,6.97359 1.85373,1.03969 3.22629,1.35826 3.92669,0.96072 v -0.001 l 0.11293,-0.0811 0.0304,-0.0364 c 0.24871,-0.44775 0.0608,-1.4267 -0.5328,-2.79158 v -0.005 c -0.74704,-1.72008 -2.12978,-3.81376 -4.11858,-6.09148 -3.57774,-4.09839 -9.04457,-8.6808 -16.25025,-12.67449 h -0.008 z M 93.087554,99.813004 C 88.007538,89.262751 82.421702,79.228511 77.428342,74.338965 c -2.664543,-2.612374 -5.02677,-3.54736 -6.758821,-1.778694 -3.256663,3.326894 -0.613919,8.24324 5.040885,13.77708 4.415533,4.32012 10.596885,8.920933 17.377148,13.475653 z m 26.432806,16.508986 c 6.4322,3.91256 11.99678,7.37882 15.60042,10.1209 -1.76868,-4.69604 -3.54736,-10.1897 -5.21669,-15.83235 -0.34288,-1.1628 -0.68432,-2.33185 -1.01755,-3.50287 -1.8916,-1.4276 -3.7732,-2.81034 -5.57225,-4.13269 -4.21328,-3.097109 -8.00936,-5.887256 -10.6353,-8.263602 0.81332,2.812306 1.63485,5.602632 2.45674,8.293972 1.37668,4.51006 2.82875,8.99598 4.38463,13.31664 z m 16.0446,15.1659 c -2.14996,-2.25288 -7.39347,-5.68322 -14.05776,-9.79162 1.86944,4.94816 3.83198,9.48466 7.28412,13.23214 5.3423,5.81024 8.85929,8.21696 10.89633,8.51124 0.38593,0.0547 0.61785,0.012 0.71451,-0.10294 0.2103,-0.25013 0.30696,-0.76472 0.29696,-1.45153 -0.0483,-2.778 -1.91608,-7.03988 -5.12808,-10.39731 z M 106.19193,84.944418 c -2.37831,-8.25752 -4.87973,-15.9072 -9.446594,-21.7682 -1.36863,-1.752413 -3.75498,-4.08212 -6.07665,-5.2292 -0.896579,-0.44168 -1.748488,-0.688426 -2.426551,-0.597666 h -0.0061 c -0.519223,0.0688 -1.007355,0.402013 -1.403472,1.10456 v 0.0053 c -0.678241,1.19728 -1.092404,3.24844 -1.092404,6.44024 0,5.39252 10.756976,13.099013 19.181561,19.133146 l 1.27018,0.911053 z m 25.78761,20.047242 c 4.19112,3.18823 8.40654,6.59587 12.00394,10.11893 -0.0143,-0.305 -0.0224,-0.61196 -0.0224,-0.92088 0,-3.81573 -0.5044,-8.2711 -1.03112,-12.86996 -3.37763,-3.543253 -6.91284,-6.951252 -10.42572,-10.339052 -1.85123,-1.784947 -3.6987,-3.567734 -5.51759,-5.362147 1.30628,5.62032 3.04655,12.478493 4.99283,19.373109 z m 16.75268,15.35779 c 1.32844,1.69364 2.44926,3.4021 3.29866,5.11592 l 0.1292,0.1312 c 1.50424,1.49621 3.06922,2.36634 4.26241,2.36634 0.16509,0 0.31857,-0.0204 0.44364,-0.0568 h 0.005 l 0.1156,-0.0461 -0.001,-0.001 c 0.45579,-0.26444 0.86603,-0.96072 1.10008,-1.94039 v -0.009 c 0.28463,-1.17906 0.27052,-2.6833 -0.22173,-4.32638 -0.24014,-0.80169 -0.59372,-1.63128 -1.07435,-2.45728 -2.79016,-4.79878 -6.14151,-9.19752 -9.79161,-13.36488 0.30481,2.98223 0.52476,5.8367 0.52476,8.4287 0,1.64754 0.25264,3.2161 0.6827,4.65817 0.15348,0.51655 0.33072,1.01951 0.52674,1.50156 z m 1.52034,11.9882 c 0,-1.55427 -0.40416,-3.15124 -1.1269,-4.77448 -1.37256,-1.49818 -2.62398,-3.37959 -3.54878,-5.54188 -3.07675,-3.78536 -7.3672,-7.59555 -11.90978,-11.21939 2.88539,9.63259 6.05092,18.62464 8.835,23.51669 0.85387,1.50014 2.07296,2.53376 3.3108,2.97794 0.6543,0.23406 1.31235,0.29838 1.89983,0.17117 0.52923,-0.11493 1.02557,-0.40756 1.41901,-0.88621 0.6802,-0.82762 1.12082,-2.2143 1.12082,-4.24384 z m -29.16722,-58.041219 -0.0201,-0.163653 c -0.37181,-3.234333 -2.16425,-9.646173 -4.58509,-15.731573 -1.86748,-4.69552 -4.09643,-9.155533 -6.28891,-11.698946 l -0.007,-0.0053 c -0.69843,-0.81188 -1.41508,-1.33664 -2.06903,-1.54676 h -0.007 c -0.3677,-0.118933 -0.7045,-0.1272 -0.97948,-0.01827 -0.30034,0.1196 -0.59712,0.401653 -0.85334,0.846186 -0.50492,0.877827 -0.81796,2.277187 -0.81796,4.249374 0,5.437 7.39704,14.273959 11.91978,19.676479 v 0.0053 l 1.4653,1.758494 0.008,0.0067 c 0.72469,0.882294 1.47225,1.754574 2.23303,2.620587 z m 25.2441,25.446186 c 3.54325,3.769633 6.9089,7.710073 9.90668,11.964443 -0.16099,-1.58536 -0.24764,-3.31133 -0.24764,-5.18472 0,-3.33117 0.0947,-7.308416 0.23192,-11.685362 -4.06248,-5.711614 -7.72831,-10.007974 -11.17883,-14.000947 0.14937,2.097254 0.22637,3.795 0.22441,4.947613 h 0.005 c 0,4.42768 0.52065,9.25488 1.05738,13.958973 z m -5.98999,-30.057719 c -1.01755,-7.893746 -2.6038,-17.053386 -4.7786,-24.436319 -1.24535,-4.22792 -2.67312,-7.83156 -4.26544,-10.179493 -1.25821,-1.855347 -2.54805,-2.8266 -3.81233,-2.46908 -0.61124,0.173666 -1.30218,0.626066 -2.06939,1.392746 l -0.004,-0.004 c -1.37649,1.385067 -1.10617,4.89188 0.41237,9.6326 1.76403,5.51132 5.24707,12.40808 9.89042,19.569093 1.53461,2.365627 3.07066,4.489867 4.62708,6.494386 z m 19.46833,24.07576 c 1.40132,2.004706 2.8509,4.176826 4.35318,6.565492 1.38668,2.20858 2.5475,4.3389 3.51288,6.21835 -0.012,-4.64728 0.60158,-9.795723 1.16082,-14.513922 l 0.20566,-1.74028 c -2.31971,-4.46412 -4.81504,-8.923613 -7.32628,-13.407933 l -1.27983,-2.287187 c -0.11733,4.306 -0.2648,8.542146 -0.40416,12.591946 z m 1.34879,8.459072 c -0.5126,-0.81332 -1.01968,-1.60287 -1.51853,-2.368313 -0.0541,2.372413 -0.0887,4.607433 -0.0887,6.670923 0,8.94381 1.98093,13.82925 4.23775,15.78768 0.78348,0.67824 1.56285,0.92837 2.21072,0.81349 v 0.004 c 0.63,-0.11493 1.21746,-0.58944 1.63734,-1.34826 1.02774,-1.85158 1.06615,-5.10414 -0.94696,-9.22075 l -0.56728,-1.15887 -0.005,-0.007 c -1.14869,-2.3617 -2.76747,-5.68322 -4.95835,-9.1718 z m -4.03764,-41.183285 0.001,-0.749533 c 0.0143,-7.750093 -0.1474,-15.2404 -1.38309,-21.46696 -1.17103,-5.91156 -3.31295,-10.643519 -7.21784,-13.247853 l -0.004,0.0053 c -0.47401,-0.315 -0.83315,-0.46436 -1.0756,-0.46436 v -0.0053 c -0.10493,0 -0.23209,0.118934 -0.36111,0.331254 l -0.004,-0.0013 c -0.32106,0.52672 -0.54137,1.370947 -0.65429,2.448707 -0.35771,3.39996 0.40755,8.60844 2.277,14.033293 2.25932,6.551386 5.20044,12.892826 8.42119,19.117413 z M 172.699,89.622244 c 2.10136,4.0882 4.04978,8.190707 5.73128,12.343226 0.3191,0.78706 0.61177,1.54678 0.87817,2.28327 0.0161,-0.46241 0.0405,-0.93304 0.0689,-1.40901 0.3009,-4.992833 1.2191,-10.829352 2.27094,-16.068379 l -7.62342,-14.62488 c -0.27033,4.297974 -0.56318,8.582174 -0.87406,12.852267 -0.10494,1.431173 -0.2664,2.98812 -0.45187,4.623506 z m 2.43262,13.679886 c -0.97556,-2.41083 -2.04777,-4.810939 -3.18822,-7.203539 -0.65591,5.897259 -1.13047,12.032699 -0.17118,16.429999 0.6802,3.12087 2.34186,5.28495 3.94884,6.04414 0.48688,0.22852 0.92839,0.30088 1.25571,0.18993 0.29677,-0.1008 0.57533,-0.40773 0.78901,-0.945 0.88479,-2.20464 0.49475,-6.78331 -2.63416,-14.51553 z m -3.86433,-45.084245 0.16152,-3.24648 c 0.48813,-9.96332 0.85584,-19.896253 1.08991,-29.785239 0.0161,-0.833147 -0.13526,-1.73616 -0.42131,-2.59772 -0.37183,-1.116693 -0.96752,-2.160507 -1.69828,-2.917187 -0.6032,-0.626066 -1.28591,-1.032186 -1.96057,-1.045946 -0.2137,-0.004 -0.44366,0.03 -0.67199,0.104933 -0.21995,0.0724 -0.44223,0.169213 -0.66413,0.282667 l 0.001,0.004 c -2.91987,1.519786 -3.59596,6.189573 -3.10121,11.935493 0.54298,6.29696 2.52536,13.718826 4.63726,20.051693 h 0.001 c 0.88638,2.652933 1.79101,5.109853 2.62469,7.213733 z m 14.11995,28.026199 2.1464,4.118587 c 1.03773,1.99452 2.5334,4.930107 3.83198,8.227146 0.4138,1.050054 0.80724,2.136393 1.15672,3.234333 0.49636,-5.242973 2.10942,-11.560106 4.20328,-18.426492 l -0.935,-2.80016 c -1.70578,-5.101813 -3.56308,-10.66192 -5.35588,-16.329226 -1.23945,5.588866 -2.52929,11.053746 -3.70638,16.044599 l -0.42042,1.780654 c -0.30696,1.304133 -0.61732,2.699026 -0.9207,4.150559 z m -1.01092,5.762187 -0.0648,-0.123067 c -0.65644,3.8118 -1.17512,7.707933 -1.38524,11.166686 -0.27802,4.57508 -0.0563,8.26717 1.06613,9.6215 1.24339,1.50067 2.33793,2.33024 3.25059,2.62095 0.48617,0.15348 0.91052,0.13333 1.25393,-0.0304 0.39719,-0.18993 0.75881,-0.57944 1.05952,-1.11831 0.65233,-1.17084 0.97305,-2.91522 0.86209,-4.94458 -0.16312,-2.95578 -1.1628,-6.2723 -2.36418,-9.317059 -1.21302,-3.081027 -2.66706,-5.931387 -3.67798,-7.875707 z m 5.41609,-42.025719 c 2.64685,-13.768866 4.16932,-26.306133 2.01883,-31.714719 -0.7004,-1.762614 -1.99239,-2.450853 -4.06802,-1.627347 -5.3139,2.111547 -2.66454,16.740533 2.04919,33.342066 z m 10.65585,33.348319 c 2.82248,8.473173 4.99925,15.250946 5.36643,18.457399 0.0467,0.41523 0.0831,0.831 0.10946,1.24946 l 0.12867,-0.75918 h 0.001 c 0.92482,-5.608719 3.24648,-12.650732 6.25498,-20.330425 l 0.18938,-0.4826 c -1.23318,-6.874427 -2.80426,-14.251627 -4.42142,-21.452667 -1.14672,3.59132 -2.344,7.190854 -3.52718,10.74232 -1.43688,4.31656 -2.84642,8.5502 -4.10232,12.575693 z m 1.83335,18.860479 c -0.26443,-2.305413 -1.6613,-6.945172 -3.60972,-12.911052 -3.16124,11.203312 -4.38908,19.942892 -0.32715,22.749292 0.37932,0.26283 0.71274,0.40578 0.99522,0.43811 0.34948,0.0405 0.69895,-0.12707 1.01557,-0.44417 l 0.009,-0.009 c 0.50707,-0.50493 0.94715,-1.32646 1.29001,-2.34812 0.68879,-2.0465 0.93892,-4.75822 0.62803,-7.47601 z m 6.2321,-56.181945 c 3.41426,-13.007893 4.77502,-24.523506 0.13526,-30.715585 -0.54496,-0.72684 -1.19926,-1.1912 -1.84908,-1.37256 -0.45848,-0.1272 -0.92428,-0.115067 -1.34219,0.044 -0.4508,0.171706 -0.88068,0.521186 -1.23785,1.050053 -0.64162,0.948573 -1.0397,2.426906 -0.9952,4.467533 0.0947,4.076053 2.45889,14.310413 5.28906,26.526599 z m 5.40252,64.314405 c 1.6395,-3.96724 1.20139,-12.061113 -0.26229,-21.876659 -1.962,5.430573 -3.42784,10.352466 -4.09643,14.408679 v 0.009 l -0.30892,1.82121 v 0.005 c -0.7247,4.20327 -1.0899,6.32072 0.73542,7.07186 1.99648,0.8235 3.25201,0.21369 3.93222,-1.43939 z m 11.09378,-58.098031 c 1.99505,-5.257254 3.39602,-10.30064 4.28277,-14.909507 1.37864,-7.175306 1.52193,-13.270706 0.75471,-17.471839 -0.30035,-1.653614 -0.87174,-2.77192 -1.56856,-3.490547 -0.53888,-0.555133 -1.17495,-0.88836 -1.81318,-1.050053 -0.67216,-0.171707 -1.35629,-0.165627 -1.96002,-0.05853 -0.68432,0.125066 -1.21355,0.355546 -1.45619,0.58944 l -0.005,0.0067 c -1.71794,1.661827 -1.42063,5.802733 -1.12028,9.993853 v 0.0053 l 0.1176,1.681493 v 0.0093 c 0.44149,6.892653 1.48941,14.865547 2.22232,20.447813 0.2162,1.647533 0.40826,3.097107 0.54692,4.245787 z m 4.7391,34.377825 c 0.65179,3.425867 1.34022,6.741134 2.04258,9.835747 0.58354,2.572346 0.61804,5.269419 0.29946,7.835679 0.98663,-3.49662 2.63202,-6.244239 4.34442,-9.107466 0.63572,-1.06204 1.28394,-2.145866 1.87552,-3.22772 1.03773,-1.900186 2.14586,-3.779813 3.30276,-5.649093 l -0.47259,-8.945413 c -0.2178,-4.122693 -0.48616,-8.264133 -0.77293,-12.35448 l -2.1925,4.41356 c -1.5589,3.12748 -3.15321,6.325187 -4.73857,9.646707 -0.75453,1.584293 -1.88964,3.888266 -2.97347,6.092906 v 0.0053 l -0.71468,1.453507 z m -1.4217,10.615827 c -0.38539,-1.702387 -0.77079,-3.473027 -1.14458,-5.295853 -2.00862,4.30816 -3.57558,8.158372 -4.2113,11.461132 -0.58748,3.06102 -0.53746,5.65731 -0.17367,7.6395 0.36913,2.0047 0.84172,3.20806 1.16691,3.42176 0.48205,-0.1853 1.17298,-1.02506 1.90786,-2.27915 0.94054,-1.60448 1.79083,-3.76909 2.31971,-6.17135 h -0.004 c 0.61588,-2.81034 0.78705,-5.91764 0.13919,-8.776039 z m 14.60076,-46.203092 c 3.44033,-8.1948 5.91709,-16.37532 6.38004,-25.29072 0.2278,-4.411426 -0.79582,-6.94732 -2.20126,-7.98916 -0.4213,-0.312506 -0.88978,-0.478133 -1.34825,-0.49832 -0.47456,-0.01827 -0.96519,0.107334 -1.42313,0.359134 -1.36291,0.759173 -2.45943,2.592533 -2.52178,5.25708 -0.19601,8.251453 0.3795,17.831506 1.11438,28.161986 z m 2.29326,36.195119 0.7774,14.687762 c 0.15956,2.99973 -0.0648,5.61015 -0.55298,7.82908 l 0.17973,-0.33895 c 2.66044,-4.84184 5.61228,-9.582386 8.82875,-14.316492 0.54906,-0.8092 1.1083,-1.61912 1.67148,-2.426547 -0.0928,-2.462813 -0.16563,-5.043387 -0.20423,-7.70596 -0.0663,-4.508626 -0.0323,-9.23236 0.16009,-13.999346 -1.31073,1.966106 -2.62701,3.900413 -3.92918,5.816853 -2.39618,3.524493 -4.75215,6.9852 -6.93106,10.4536 z m -2.77193,14.868932 -0.49635,-9.391906 -0.52476,0.947134 c -0.65626,1.197293 -1.30877,2.29112 -1.94432,3.353333 -1.60912,2.689373 -3.15338,5.269229 -4.00976,8.376519 -1.3345,4.83738 -0.96072,7.99255 0.17582,9.52682 0.39557,0.5353 0.89032,0.81796 1.39274,0.83618 0.60178,0.0221 1.2961,-0.26854 1.98899,-0.87621 l -0.001,-0.001 c 2.07349,-1.82532 3.77534,-6.03448 3.41978,-12.76972 z m 18.26551,-45.350452 c 2.97186,-5.305866 5.65069,-10.958706 7.72616,-17.144706 1.7869,-5.329613 2.344,-10.253999 1.85318,-13.473679 -0.15954,-1.04988 -0.42594,-1.86588 -0.77686,-2.372414 l 0.005,-0.004 c -0.16169,-0.230493 -0.33376,-0.35556 -0.49277,-0.3536 h -0.009 c -0.2866,0.004 -0.69021,0.18136 -1.20746,0.553174 -5.675,4.084093 -6.07916,12.931239 -6.54907,23.421279 -0.13579,3.00992 -0.27855,6.153653 -0.55103,9.373866 z m -0.99378,36.97036 c 0.19798,4.713746 0.47044,9.020282 0.72076,12.636082 0.18387,2.62452 0.12907,4.92653 -0.11093,6.93267 3.58167,-6.4222 8.03365,-12.15187 12.90693,-17.602632 0.40971,-3.805547 0.72078,-7.596974 0.63162,-11.06376 -0.0483,-1.851227 0.0547,-5.099667 0.32965,-9.137307 -2.29988,2.50748 -4.60332,5.037307 -6.62215,7.64968 -2.75977,3.569693 -5.38268,7.084547 -7.85586,10.585267 z m -2.8282,12.874602 c -0.1676,-2.39045 -0.34341,-5.09199 -0.49885,-8.033643 -2.73941,4.112493 -5.29568,8.275753 -7.65183,12.559963 -1.87534,3.41371 -1.6672,6.31481 -0.49421,8.12799 0.64376,0.9952 1.57464,1.65718 2.56431,1.85569 0.94642,0.18939 1.99434,-0.0508 2.93344,-0.83423 2.11352,-1.76653 3.68405,-5.98588 3.14714,-13.67577 z m 21.8386,-41.743068 c 0.96698,-1.26 1.8573,-2.531787 2.6322,-3.8218 4.70212,-7.819427 8.54019,-15.181973 10.45216,-20.86108 1.46154,-4.342986 1.81656,-7.49424 0.53887,-8.717973 -0.78097,-0.747027 -1.47583,-1.185133 -2.08779,-1.340573 -1.25338,-0.323214 -2.50909,0.688786 -3.71441,2.588066 -1.53659,2.416907 -2.86663,6.078614 -3.99763,10.365507 -1.73616,6.5714 -2.98972,14.516066 -3.8234,21.787853 z m -2.08761,32.377412 -0.34537,3.011896 c -0.56318,4.82719 -1.11224,9.51108 -1.01343,13.38309 0.0143,0.53335 0.007,1.06007 -0.0161,1.5793 3.57308,-3.96726 8.08117,-7.92038 12.5914,-11.62926 1.75028,-7.954679 3.12337,-15.899172 4.04157,-21.994052 l -3.56291,3.573626 c -4.00173,4.001734 -7.9729,7.970947 -11.69554,12.0754 z m -4.90777,16.480046 c -0.0892,-3.55344 0.30445,-7.5591 0.78097,-11.72788 -4.14645,5.00712 -7.833,10.29064 -10.71177,16.1393 l -0.001,-10e-4 c -0.26478,0.54084 -0.47044,1.09793 -0.62249,1.65504 -0.52261,1.93841 -0.32053,3.80768 0.21833,5.2896 h 0.001 c 0.49689,1.35684 1.21962,2.32775 1.86945,2.64685 l 0.007,0.005 0.0787,0.0304 c 0.14384,0.038 0.30124,0.0543 0.45634,0.0521 1.10062,-0.0279 2.48516,-0.87353 3.80608,-2.31345 1.46333,-1.59895 2.76532,-3.88023 3.49876,-6.60338 0.43149,-1.60162 0.66394,-3.34582 0.61785,-5.17274 z m 25.06041,-42.344659 c 0.72059,-0.780986 1.43724,-1.568573 2.14389,-2.362239 2.67508,-3.001867 6.84852,-8.041147 9.70084,-12.987333 1.833,-3.183774 3.12088,-6.303214 3.06067,-8.699747 -0.0505,-1.978267 -0.43811,-3.40764 -1.01951,-4.324226 l 0.004,-0.0013 c -0.31304,-0.49028 -0.67664,-0.803666 -1.04952,-0.941066 -0.34537,-0.126534 -0.74757,-0.1168 -1.15869,0.0224 -0.66056,0.224413 -1.35952,0.751133 -2.00917,1.561053 -2.07564,2.585933 -4.06444,7.06972 -5.69947,11.81436 l 0.009,0.0013 c -2.06957,6.010186 -3.55952,12.36556 -3.98136,15.916866 z m -5.72788,34.178429 c -0.48205,2.14585 -0.99305,4.28975 -1.53051,6.39165 -1.21497,4.76038 -2.5677,9.32724 -4.05176,13.30038 3.53719,-2.82052 8.81875,-6.34555 14.87163,-10.29654 1.45153,-4.44126 2.80231,-9.0887 4.08016,-13.7751 0.75919,-2.779446 1.50764,-5.638552 2.2452,-8.511259 -2.49195,2.416373 -6.144,5.321586 -10.1938,8.541629 -1.75241,1.39543 -3.58327,2.85107 -5.42092,4.34924 z m -4.97853,5.51544 0.43006,-1.71793 c -5.39054,4.6412 -10.34281,9.49876 -12.9977,14.0374 l 0.004,0.001 c -0.89247,1.528 -1.54623,2.80391 -1.91394,4.02139 -0.34288,1.13849 -0.44776,2.2811 -0.28873,3.62436 0.15348,1.26965 0.69432,2.16016 1.40687,2.69296 l 10e-4,-0.004 c 0.36967,0.27444 0.79152,0.47044 1.22355,0.57746 h 0.009 c 0.44615,0.11134 0.92267,0.13776 1.38721,0.0829 0.90194,-0.10934 1.75028,-0.53478 2.277,-1.23982 3.20396,-4.28224 6.08076,-12.74738 8.46122,-22.07658 z m 26.92809,-28.908495 c 7.96896,-6.67288 18.459,-15.47732 18.3116,-21.213067 -0.0867,-3.379226 -0.5814,-5.450759 -1.31628,-6.565493 -0.34948,-0.53084 -0.75113,-0.766866 -1.16084,-0.787053 -0.59355,-0.0284 -1.3286,0.250147 -2.10601,0.710587 -2.2066,1.312346 -4.40927,3.894333 -5.50132,5.735733 -2.21679,3.73676 -3.90846,7.80084 -5.35035,12.149906 h -0.005 c -1.03934,3.139107 -1.96415,6.4742 -2.87074,9.969387 z m -9.67655,35.078225 -0.12866,0.38344 -0.44472,1.3286 c -1.96611,5.88708 -3.79143,11.33588 -7.45779,16.12502 0.55103,-0.43399 1.11867,-0.87014 1.70632,-1.30627 3.25256,-2.41065 7.03327,-4.82112 11.03499,-7.23392 h 0.007 c 0.87211,-0.52261 1.70794,-1.09187 2.54966,-1.6638 l 1.02397,-0.69235 0.89247,-2.34382 c 1.55838,-4.09643 3.43194,-9.02636 5.51956,-14.23912 -4.05034,2.71332 -8.11012,5.35409 -11.95374,7.85336 l -2.75012,1.78886 z m -11.72752,16.76074 c 3.34278,-3.90239 5.19043,-8.55019 6.92302,-13.61146 -6.52798,4.31478 -11.66963,7.92628 -13.77547,10.29262 -3.13909,3.52913 -4.89759,7.93841 -4.86113,10.76108 0.009,0.69236 0.12093,1.20693 0.34286,1.45708 0.0988,0.11093 0.33126,0.14525 0.71255,0.0749 2.03151,-0.37521 5.48149,-2.93131 10.65817,-8.97419 z m 34.35979,-36.196539 c 6.30696,-4.534533 12.06056,-9.097293 16.25008,-13.377573 5.76772,-5.890653 8.46121,-11.087693 4.99228,-14.483547 -1.72187,-1.685946 -3.94491,-0.793666 -6.40183,1.715974 -4.82505,4.929933 -10.09857,15.275239 -14.84053,26.145146 z m -11.42504,28.708379 c -1.35684,3.54128 -2.38045,6.1197 -2.99025,7.23998 -2.75979,5.06732 -5.56012,9.16768 -8.21304,12.33983 -0.67807,0.81136 -1.35023,1.56447 -2.00864,2.25879 2.3197,-1.20747 4.66764,-2.64472 7.01576,-4.0841 2.98006,-1.82746 5.97016,-3.66244 9.09513,-5.12612 1.31235,-0.61338 2.62667,-1.21693 3.94705,-1.81066 1.92002,-3.44446 3.65207,-6.82815 4.98211,-9.72728 0.96125,-2.0978 2.40475,-5.07378 4.18808,-8.51179 -3.85236,1.97469 -7.89643,3.80965 -12.20457,5.43701 -1.35274,0.51047 -2.6088,1.21764 -3.81163,1.98434 z m -6.10703,5.54438 c 0.22782,-0.41988 0.55711,-1.1653 0.97288,-2.18445 -3.78536,2.29129 -7.3186,4.55472 -10.28242,6.74881 -3.04243,2.25539 -5.52759,4.46199 -7.12099,6.57802 -1.52193,2.02042 -2.37188,3.872 -2.6808,5.37821 -0.27248,1.32396 -0.15545,2.24127 0.25228,2.582 l -0.001,0.001 0.13722,0.0925 c 0.68486,0.37378 1.94842,0.0933 3.64063,-0.87407 h 0.009 c 2.08118,-1.18924 4.57098,-3.3594 7.25375,-6.56943 2.52375,-3.01813 5.18829,-6.92248 7.82156,-11.75378 z m 31.28216,-22.21649 c 4.02603,-2.463 7.91072,-5.01659 11.76451,-7.55052 2.57628,-1.694 5.14416,-3.381736 7.65772,-4.982643 1.28001,-0.815813 3.48858,-3.884693 4.62976,-6.935173 0.41738,-1.12028 0.67002,-2.208746 0.63768,-3.10872 -0.0224,-0.619813 -0.20011,-1.130466 -0.58354,-1.41956 -0.45633,-0.345013 -1.25196,-0.5328 -2.4614,-0.49688 -1.78886,0.05667 -3.4137,0.848334 -5.06482,2.205174 -1.82728,1.498173 -3.71335,3.698346 -5.86082,6.359306 -3.5554,4.405347 -7.11902,9.852366 -10.30886,15.232726 z m -15.80805,30.24711 c -1.02557,1.81316 -2.09725,3.63044 -3.18304,5.39089 -2.98419,4.83328 -6.1056,9.28061 -8.77425,12.14938 l -0.005,0.009 -0.44006,0.46651 -0.0143,0.0143 -0.11093,0.11292 c 2.17784,-0.75454 4.45894,-1.33397 6.6961,-1.90376 2.73584,-0.69449 5.41056,-1.37667 7.58698,-2.32988 0.45472,-0.1994 0.9977,-0.40559 1.61556,-0.61732 0.97697,-1.19728 1.77617,-2.14032 2.39617,-2.69741 l 0.004,0.004 c 3.08085,-2.78962 6.43828,-8.35831 10.28241,-14.7337 l 2.1296,-3.52109 c -6.14704,2.51373 -12.19778,4.99281 -18.18242,7.65736 z m -6.20368,3.52502 0.57532,-0.94053 c -2.68884,1.31645 -5.39036,2.97615 -8.08528,4.62779 -2.84285,1.74224 -5.68375,3.48644 -8.66133,4.91582 -1.15868,0.5571 -2.12816,1.27768 -2.89896,2.0835 -1.1067,1.14672 -1.8112,2.46711 -2.1262,3.70852 h -10e-4 c -0.28265,1.12278 -0.25228,2.13425 0.0804,2.8266 0.0751,0.15956 0.17028,0.30035 0.27302,0.4097 l 0.004,-0.004 0.04,0.0364 0.0201,0.0223 c 0.70057,0.6518 2.18499,0.63608 4.10661,-0.0649 2.33775,-0.8478 5.11182,-2.69295 7.88571,-5.56599 l 0.44007,-0.46652 c 2.50553,-2.69099 5.47756,-6.93928 8.34829,-11.5887 z m 33.50376,-18.76937 c 4.3748,-1.83139 8.81052,-3.74085 13.31468,-5.80471 4.74661,-2.17229 8.59878,-4.6251 11.18274,-6.96286 2.29738,-2.07922 3.51252,-3.9206 3.30276,-5.16256 -0.18385,-1.08991 -0.4867,-1.88767 -0.87621,-2.42655 -0.61588,-0.8478 -1.65361,-1.03363 -2.91325,-0.78348 h -0.005 c -1.69809,0.33733 -3.73068,1.38311 -5.81828,2.76441 -5.89745,3.89578 -11.98213,10.29798 -13.27054,11.85243 -1.72615,2.08153 -3.35904,4.28027 -4.91582,6.52332 z m -21.82197,31.57768 -0.43864,0.54495 c -3.0303,3.76356 -7.42546,9.21629 -12.54728,13.27823 l -0.5957,0.46294 c 5.23904,-1.37721 11.56636,-2.47122 18.39612,-3.58381 1.41097,-1.33665 2.79676,-2.67938 4.13072,-4.00173 4.68605,-4.6353 8.74173,-8.9883 11.34409,-11.82258 -2.66864,0.66645 -5.25725,1.29001 -7.68773,1.87552 h -0.009 c -5.20098,1.25393 -9.66797,2.33025 -12.59337,3.24648 z m -15.19878,11.04107 c 3.24648,-2.57396 6.22816,-5.80221 8.72547,-8.7437 -1.28787,0.37575 -2.61631,0.71452 -3.96063,1.05596 -6.99736,1.77868 -14.4714,3.68047 -16.46234,11.48381 -0.11907,0.46848 -0.13723,0.78902 -0.0729,0.97287 v 0.005 c 0.0161,0.0466 0.1236,0.0972 0.2932,0.13722 0.50047,0.12311 1.2232,0.085 2.09119,-0.0927 2.66723,-0.54496 6.24281,-2.3256 9.38603,-4.81951 z m 46.81236,-22.85756 c 2.25324,-0.65448 4.48628,-1.34076 6.66001,-2.05939 13.21194,-4.37087 24.0352,-9.84985 21.83718,-16.49683 l 0.005,-0.001 c -0.18243,-0.55103 -0.50493,-1.03559 -0.92945,-1.43063 -0.60516,-0.56372 -1.43688,-0.95536 -2.41226,-1.11277 -1.06006,-0.17171 -2.28326,-0.0745 -3.57934,0.35503 -1.78262,0.59157 -3.70478,1.80905 -5.55851,3.80214 -2.31952,2.49676 -8.31363,8.86876 -13.57285,14.38082 l -2.45086,2.56376 z M 335.8264,170.4224 c -6.27121,5.81847 -13.06291,11.33034 -18.88942,14.19696 3.09711,-0.19386 6.2848,-0.50636 9.47053,-0.81993 h 0.005 c 4.38354,-0.42739 8.77067,-0.86156 12.96769,-0.99074 l 0.29677,-0.007 c 3.09317,-2.60683 5.75217,-5.17864 7.70615,-7.28055 1.49601,-1.61108 3.29293,-3.30883 5.20848,-4.9821 1.4258,-1.24606 2.92129,-2.48587 4.41392,-3.671 -1.72866,0.26693 -3.46875,0.55317 -5.21312,0.87478 -4.61708,0.84726 -9.28311,1.60287 -13.77102,2.3256 l -2.19605,0.35502 z m -28.08551,11.97213 c 3.43605,3.47482 12.57586,-2.83839 21.67922,-10.90796 -7.54658,1.30217 -14.14478,2.67723 -18.74364,4.57652 -1.21961,0.50296 -2.11154,1.08633 -2.73136,1.6981 l -0.005,0.005 c -0.62804,0.61802 -0.9634,1.26571 -1.07829,1.87963 -0.11094,0.58944 -0.0259,1.17692 0.18582,1.6956 l 10e-4,-0.002 c 0.16777,0.40415 0.40986,0.76722 0.69234,1.05399 z m 61.54819,-20.82928 c 3.44659,-0.48224 6.74578,-0.9911 9.81644,-1.63128 2.45692,-0.51064 4.67372,-1.06775 6.68396,-1.62074 v -0.002 c 2.02543,-0.5571 3.86844,-1.12224 5.54832,-1.64146 l 0.80331,-0.24657 h 0.005 c 3.89488,-1.18317 8.08994,-2.463 7.0967,-7.14082 -0.19994,-0.94662 -0.65842,-1.72402 -1.36292,-2.21072 -0.69843,-0.4842 -1.69811,-0.73435 -2.99366,-0.66198 -8.21714,0.46455 -15.68101,6.77151 -24.06968,13.86373 l -1.52854,1.29198 z m -28.3028,24.76257 c -3.11532,2.55556 -6.60784,5.10914 -10.24989,7.28144 -1.74438,1.04041 -3.52502,1.99506 -5.31748,2.82463 7.52819,-0.93642 15.50877,-0.83761 23.63104,-0.29838 l 1.01344,-0.63804 c 2.07349,-1.32039 5.32551,-3.65063 9.16215,-6.39826 l 3.83145,-2.73958 c -5.24923,0.0507 -10.20345,0.0161 -14.35205,-0.0143 -3.08943,-0.0204 -5.73574,-0.0406 -7.71866,-0.0182 z m -12.07074,4.23311 c 2.04061,-1.21712 4.03353,-2.5577 5.93336,-3.95509 -2.66097,0.19386 -5.37823,0.4624 -8.09387,0.72684 -4.38712,0.42988 -8.78032,0.86245 -12.97537,0.99359 h -0.009 c -2.17623,0.0663 -3.62974,1.33415 -4.23955,2.8484 v 0.009 c -0.22029,0.5471 -0.33536,1.131 -0.33536,1.69632 h -0.005 c 0,0.53477 0.10733,1.05792 0.3191,1.51228 0.49028,1.04738 1.65772,1.81264 3.59186,1.75242 5.00657,-0.15598 10.55704,-2.44727 15.81412,-5.5828 z m 45.88952,-8.04133 c 7.41329,-0.31661 14.6715,-0.92642 20.44334,-2.07707 3.76714,-0.75167 6.5294,-1.79691 8.30363,-3.09353 l -10e-4,-0.002 c 1.53872,-1.12438 2.28789,-2.44084 2.26753,-3.90185 -0.0445,-3.1357 -1.49603,-4.37962 -3.81984,-4.3471 -6.07665,0.0845 -16.91064,6.48688 -27.19252,13.42152 z m -24.87496,17.23778 c -6.30499,3.82538 -13.3045,7.21122 -19.9788,9.32527 -1.50209,0.47652 -2.9908,0.88622 -4.45591,1.22766 3.59543,0.36306 7.28608,1.12028 11.24315,1.93163 v 0.002 l 3.48464,0.70665 10e-4,-0.006 3.18627,0.62803 c 2.32166,-1.04952 4.65745,-2.20017 6.96286,-3.44409 2.70511,-1.45958 6.07058,-3.51091 9.81948,-5.7981 1.65576,-1.00986 3.38388,-2.06385 5.16668,-3.13552 -5.14434,-0.54549 -10.31852,-1.07436 -15.43033,-1.43742 z m -21.04904,5.92925 c 4.8111,-1.52247 9.7957,-3.73265 14.54446,-6.29088 -11.28423,-0.434 -22.06907,0.2907 -31.34557,3.8704 -0.78562,0.30249 -1.41758,0.8419 -1.76653,1.44903 -0.18189,0.31554 -0.28124,0.64626 -0.27105,0.94715 0.007,0.23799 0.10546,0.49081 0.30534,0.7188 0.40167,0.45829 1.17103,0.86048 2.39815,1.10866 4.49451,0.91462 10.15485,0.0925 16.1352,-1.80316 z m 47.73717,-6.89658 c 9.23611,0.89443 18.16776,1.48191 26.25359,0.84029 3.27024,-0.26086 5.241,-1.52854 6.09898,-3.0896 l 0.004,0.002 c 0.35556,-0.64983 0.52119,-1.36452 0.51315,-2.06491 -0.009,-0.71273 -0.20208,-1.43599 -0.5596,-2.08976 -0.83315,-1.52854 -2.59772,-2.72993 -5.13827,-2.87519 -7.45582,-0.4281 -17.51186,3.98135 -27.17178,9.27703 z m -44.7453,19.24034 c 1.83335,-0.58747 3.73514,-1.25803 5.67749,-2.00452 l -1.51426,-0.3075 h -0.009 c -6.72952,-1.3806 -12.65876,-2.59772 -18.38842,-1.85319 v 0.002 l -0.1272,0.0182 v 0.002 c -2.34187,0.35752 -3.97726,1.08025 -4.9578,1.95807 l 10e-4,0.002 c -0.74757,0.67056 -1.06204,1.40955 -0.97145,2.076 h 0.001 l 0.004,0.0259 c 0.0908,0.59963 0.69844,1.22159 1.49621,1.74027 1.14868,0.74703 2.59218,1.21551 3.69619,1.24589 3.50324,0.10077 8.89932,-0.92696 15.08943,-2.90522 z m 43.30145,1.22123 0.73273,0.11292 c 4.84756,0.73738 9.69905,1.2884 14.41119,1.67184 5.12396,0.41773 10.0337,0.64572 14.56626,0.7045 0.74292,-0.0745 1.4074,-0.20565 1.98684,-0.37325 v -0.002 c 1.30216,-0.38182 2.158,-0.97537 2.64222,-1.65558 0.44077,-0.61946 0.59569,-1.35845 0.52725,-2.09172 -0.0221,-0.2421 -0.0743,-0.50242 -0.15133,-0.76275 -0.20011,-0.68271 -0.51458,-1.30627 -1.0438,-1.78083 -0.57748,-0.52119 -1.45566,-0.93088 -2.76586,-1.16887 -3.1818,-0.57336 -6.30517,-0.55514 -9.44837,-0.15956 -3.17412,0.39951 -6.43221,1.2014 -9.82396,2.16819 l -3.65831,1.01754 c -2.69957,0.74703 -5.44308,1.50425 -7.97486,2.31971 z m -48.31661,14.79908 c 2.43513,-0.50707 4.94065,-1.14922 7.41777,-1.86999 -6.00412,-1.35273 -12.04485,-2.61022 -18.17011,-3.63187 -1.91,-0.17975 -3.66849,0.31911 -4.91241,1.16083 v 0.006 c -0.6132,0.4138 -1.08168,0.9005 -1.3522,1.39936 -0.21172,0.39111 -0.29892,0.79723 -0.21976,1.16494 0.0905,0.4315 0.41523,0.89587 1.02308,1.35631 v 0.008 c 2.90915,2.20661 9.20413,1.86123 16.21363,0.40612 z m 52.55829,4.21542 c 3.04493,0.52065 6.04466,1.00128 8.86518,1.40687 4.7543,0.68235 8.98187,1.15476 12.00198,1.24552 2.35812,0.0709 4.2038,-0.38754 5.48756,-1.14475 1.21354,-0.71666 1.88964,-1.6956 1.95861,-2.67866 v -0.006 l 0.0263,-0.34538 v -0.008 c 0.0764,-0.93838 0.16722,-2.05723 -2.76622,-2.4487 -1.81281,-0.2421 -3.73478,-0.27248 -5.49525,-0.20208 -2.80444,0.11489 -5.21884,0.49474 -6.19832,0.68825 -4.9964,0.98966 -9.7632,2.30398 -13.87981,3.49322 z m -55.12403,11.23099 c 3.15536,-0.47044 6.5471,-1.12492 10.08035,-1.95861 -7.61735,-1.79029 -15.03672,-2.99169 -21.45481,-2.96935 -3.51288,0.11488 -5.45112,0.93231 -6.27463,1.962 l 0.004,0.002 c -0.25085,0.31286 -0.37789,0.64162 -0.39772,0.95304 -0.0221,0.33894 0.0624,0.69236 0.23209,1.017 0.434,0.83226 1.37292,1.51032 2.5561,1.66988 3.60364,0.49081 8.93933,0.26854 15.25452,-0.6761 z m 47.79577,5.80829 c 8.7839,2.6933 17.66482,3.74944 25.8196,4.71427 l 1.41152,0.16759 c 2.90503,0.0223 4.87526,-0.76739 5.91102,-1.89625 0.41577,-0.45383 0.67217,-0.96429 0.75506,-1.47333 0.0825,-0.50904 0.005,-1.04988 -0.22994,-1.56714 -0.5555,-1.20889 -1.95092,-2.33989 -4.22382,-2.99365 -1.74438,-0.501 -3.64009,-0.77741 -5.54385,-0.88032 h -0.005 c -2.22304,-0.12096 -4.47986,-0.0141 -6.55746,0.23459 -5.63694,0.67413 -11.20509,2.11138 -16.70641,3.53057 v 0.002 l -0.62964,0.1617 z m -59.56975,9.44623 c 3.78946,-0.79724 7.6152,-1.53623 11.43665,-2.25092 -6.37753,-1.44546 -12.25676,-2.48926 -17.02301,-2.96792 l -0.0887,-0.01 -0.0933,-0.0182 c -2.03098,-0.41935 -3.9794,-0.0927 -5.38627,0.65019 -0.65036,0.34341 -1.16708,0.7715 -1.48601,1.23391 -0.23818,0.34484 -0.35771,0.72059 -0.31715,1.07972 0.0508,0.44007 0.33931,0.94303 0.9148,1.47387 2.99777,2.76585 7.01755,1.89375 10.97067,1.03773 h 0.005 l 1.05792,-0.22835 z"/><g transform="matrix(1.3333333,0,0,-1.3333333,-26.939785,289.66599)" id="g4554"><g id="g4549"><g id="g4545"><path d="m 182.95305,55.704203 0.58882,-0.481612 c 1.42634,-0.811396 2.82535,-1.539576 4.1473,-2.178911 2.08042,-1.005032 4.31548,-1.99385 6.50497,-2.963238 7.56482,-3.346088 14.71783,-6.512209 18.19739,-11.72538 0.90547,5.219201 0.88121,9.864462 -0.14218,13.858998 -1.20979,4.716684 -3.83842,8.559661 -7.99202,11.416902 l -0.66024,0.454408 0.0923,0.793038 c 0.34372,3.007326 -0.12087,5.696391 -0.96751,8.138754 -0.86459,2.492615 -2.15157,4.792665 -3.39326,6.923334 -2.03793,3.494566 -5.20593,6.422963 -8.81534,8.394434 -3.57966,1.954722 -7.58907,2.963239 -11.35338,2.645246 -2.89383,-0.243888 -5.67964,-1.343125 -7.93105,-3.26448 -2.0839,-1.779175 -3.72974,-4.272996 -4.60345,-7.457341 -0.55719,-2.030702 -0.62071,-4.162845 -0.2723,-6.261487 0.37106,-2.222596 1.21288,-4.421072 2.42374,-6.433549 0.77575,-1.288586 1.83854,-2.542062 3.04994,-3.738587 1.252,-1.238736 2.66615,-2.425747 4.08981,-3.538385 1.76109,-1.375018 3.65349,-2.66347 5.54939,-3.82971 v -0.0046 c 0.46915,-0.289047 0.94017,-0.572065 1.40959,-0.844763 z m 7.78097,18.388344 c 1.90045,0 3.44042,-1.539844 3.44042,-3.440294 0,-1.900449 -1.53997,-3.440025 -3.44042,-3.440025 -1.90005,0 -3.43989,1.539576 -3.43989,3.440025 0,1.90045 1.53984,3.440294 3.43989,3.440294" style="fill:#e3000f;fill-opacity:1;fill-rule:nonzero;stroke:none;stroke-width:1.34004343" id="path850"/></g></g></g><flowRoot transform="matrix(1.3333333,0,0,-1.3333333,1.3333333,289.66599)" style="font-style:normal;font-weight:normal;font-size:40px;line-height:1.25;font-family:sans-serif;letter-spacing:0px;word-spacing:0px;fill:#000000;fill-opacity:1;stroke:none" id="flowRoot856" xml:space="preserve"><flowRegion id="flowRegion858"><rect y="142.03876" x="388.41879" height="48.468204" width="28.946287" id="rect860"/></flowRegion><flowPara id="flowPara862"/></flowRoot><flowRoot transform="translate(0,8.9413131)" style="font-style:normal;font-weight:normal;font-size:40px;line-height:1.25;font-family:sans-serif;letter-spacing:0px;word-spacing:0px;fill:#000000;fill-opacity:1;stroke:none" id="flowRoot4528" xml:space="preserve"><flowRegion id="flowRegion4530"><rect y="198.28154" x="607.37946" height="93.296532" width="298.92969" id="rect4532"/></flowRegion><flowPara id="flowPara4534"/></flowRoot><path id="text876" d="M 888.66602 95.960938 C 877.67614 95.960938 868.85194 99.728945 862.19141 107.26367 C 855.53087 114.75677 852.19922 124.12363 852.19922 135.36328 L 852.19922 151.41016 C 852.19922 162.69143 855.53087 172.07917 862.19141 179.57227 C 868.85194 187.02374 877.67614 190.74805 888.66602 190.74805 C 899.98892 190.74805 909.08445 187.02374 915.95312 179.57227 C 922.86343 172.07917 926.31836 162.69143 926.31836 151.41016 L 926.31836 135.36328 C 926.31836 124.12363 922.86343 114.75677 915.95312 107.26367 C 909.08445 99.728945 899.98892 95.960938 888.66602 95.960938 z M 445.07422 97.271484 L 445.07422 189.4375 L 479.85547 189.4375 C 486.89066 189.4375 492.7191 188.27259 497.33984 185.94141 C 502.00222 183.56859 505.47802 180.32042 507.76758 176.19922 C 510.05714 172.03639 511.20117 167.24957 511.20117 161.83789 C 511.20117 156.46784 510.05714 151.76451 507.76758 147.72656 C 505.51965 143.64699 502.06472 140.46143 497.40234 138.17188 C 492.7816 135.88232 486.93228 134.73828 479.85547 134.73828 L 458.125 134.73828 L 458.125 107.88672 L 502.20898 107.88672 L 502.20898 97.271484 L 445.07422 97.271484 z M 526.6875 97.271484 L 526.6875 189.4375 L 539.73828 189.4375 L 539.73828 152.8457 L 561.6543 152.8457 C 568.68948 152.8457 574.51793 151.65992 579.13867 149.28711 C 583.80104 146.91429 587.27685 143.64721 589.56641 139.48438 C 591.85596 135.32154 593.00195 130.5119 593.00195 125.05859 C 593.00195 116.56642 590.29449 109.82352 584.88281 104.82812 C 579.47113 99.791098 571.72835 97.271484 561.6543 97.271484 L 526.6875 97.271484 z M 625.9082 97.271484 L 590.37891 189.4375 L 603.74219 189.4375 L 612.66992 165.20898 L 649.82422 165.20898 L 658.62891 189.4375 L 671.99023 189.4375 L 637.02344 97.271484 L 625.9082 97.271484 z M 684.10547 97.271484 L 684.10547 189.4375 L 697.1543 189.4375 L 697.1543 149.09961 L 740.92773 149.09961 L 740.92773 189.4375 L 753.97852 189.4375 L 753.97852 97.271484 L 740.92773 97.271484 L 740.92773 138.54688 L 697.1543 138.54688 L 697.1543 97.271484 L 684.10547 97.271484 z M 775.20898 97.271484 L 775.20898 189.4375 L 788.25781 189.4375 L 788.25781 148.22461 L 798.125 148.22461 L 831.71875 189.4375 L 847.70312 189.4375 L 808.80273 141.98047 L 845.14453 97.271484 L 830.0957 97.271484 L 797.0625 137.67188 L 788.25781 137.67188 L 788.25781 97.271484 L 775.20898 97.271484 z M 888.66602 106.95117 C 896.24237 106.95117 902.23779 109.61493 906.65039 114.94336 C 911.06299 120.23016 913.26953 126.99587 913.26953 135.23828 L 913.26953 151.41016 C 913.26953 159.77745 911.06299 166.60383 906.65039 171.89062 C 902.27942 177.17742 896.284 179.82227 888.66602 179.82227 C 881.42269 179.82227 875.6986 177.17742 871.49414 171.89062 C 867.33131 166.5622 865.25 159.73582 865.25 151.41016 L 865.25 135.23828 C 865.25 126.99587 867.33131 120.23016 871.49414 114.94336 C 875.6986 109.61493 881.42269 106.95117 888.66602 106.95117 z M 539.73828 107.88672 L 561.6543 107.88672 C 567.89855 107.88672 572.49947 109.48993 575.45508 112.69531 C 578.45232 115.90069 579.95117 120.06331 579.95117 125.18359 C 579.95117 130.26225 578.45232 134.38508 575.45508 137.54883 C 572.49947 140.71258 567.89855 142.29297 561.6543 142.29297 L 539.73828 142.29297 L 539.73828 107.88672 z M 631.40234 114.31836 L 646.01562 154.65625 L 616.54102 154.65625 L 631.40234 114.31836 z M 458.125 145.29102 L 479.85547 145.29102 C 486.09972 145.29102 490.69869 146.81074 493.6543 149.84961 C 496.60991 152.84685 498.08789 156.80075 498.08789 161.71289 C 498.08789 166.83317 496.60991 170.97492 493.6543 174.13867 C 490.69869 177.30242 486.09972 178.88477 479.85547 178.88477 L 458.125 178.88477 L 458.125 145.29102 z " style="font-style:normal;font-variant:normal;font-weight:500;font-stretch:normal;font-size:127.88220978px;line-height:1.25;font-family:'Roberto Sans';-inkscape-font-specification:'Roberto Sans, Medium';font-variant-ligatures:normal;font-variant-caps:normal;font-variant-numeric:normal;font-feature-settings:normal;text-align:start;letter-spacing:0px;word-spacing:0px;writing-mode:lr-tb;text-anchor:start;fill:#ffffff;fill-opacity:1;stroke:none;stroke-width:3.1969738;"/>



<path id="text922" d="M 554.98828 216.32227 C 549.74028 216.32227 545.52632 218.12514 542.34766 221.73047 C 539.19032 225.31447 537.61133 229.97618 537.61133 235.71484 L 537.61133 243.74609 C 537.61133 249.50609 539.19032 254.17772 542.34766 257.76172 C 545.52632 261.34572 549.74028 263.13867 554.98828 263.13867 C 560.00161 263.13867 563.92634 261.77168 566.76367 259.04102 C 569.62234 256.31035 571.29644 252.65307 571.78711 248.06641 L 566.02734 248.06641 C 565.49401 251.71441 564.34293 254.35929 562.57227 256.00195 C 560.8016 257.64462 558.27361 258.4668 554.98828 258.4668 C 551.40428 258.4668 548.57715 257.08989 546.50781 254.33789 C 544.43848 251.56456 543.4043 248.03409 543.4043 243.74609 L 543.4043 235.65039 C 543.4043 231.40506 544.43848 227.9063 546.50781 225.1543 C 548.57715 222.38096 551.40428 220.99414 554.98828 220.99414 C 558.42295 220.99414 560.99255 221.87972 562.69922 223.65039 C 564.40589 225.39972 565.51534 228.00103 566.02734 231.45703 L 571.78711 231.45703 C 571.48844 228.38503 570.69001 225.71836 569.38867 223.45703 C 568.10867 221.1957 566.2741 219.44632 563.88477 218.20898 C 561.51677 216.95032 558.55095 216.32227 554.98828 216.32227 z M 458.95703 216.96094 L 458.95703 262.4668 L 464.7168 262.4668 L 464.7168 244.16211 L 476.07617 244.16211 C 479.53217 244.16211 482.39101 243.58559 484.65234 242.43359 C 486.91368 241.26026 488.59965 239.66143 489.70898 237.63477 C 490.81832 235.58677 491.37305 233.22917 491.37305 230.5625 C 491.37305 226.4025 490.04963 223.09591 487.4043 220.64258 C 484.7803 218.18924 481.00417 216.96094 476.07617 216.96094 L 458.95703 216.96094 z M 496.55664 216.96094 L 512.10742 250.91406 L 510.79688 253.60156 C 509.96487 255.30823 509.2061 256.54645 508.52344 257.31445 C 507.84077 258.08245 506.7214 258.4668 505.16406 258.4668 L 504.17188 258.4668 C 503.78787 258.44546 503.4154 258.42368 503.05273 258.40234 C 502.7114 258.38101 502.45582 258.35922 502.28516 258.33789 L 502.0918 262.84961 C 502.3478 262.91361 502.79555 262.97702 503.43555 263.04102 C 504.09688 263.10502 504.69518 263.13867 505.22852 263.13867 C 508.42852 263.13867 510.73263 262.46509 512.14062 261.12109 C 513.54862 259.77709 514.88196 257.73052 516.14062 254.97852 L 532.26758 216.96094 L 525.54883 216.96094 L 514.79688 244.70508 L 512.46094 238.625 L 503.05273 216.96094 L 496.55664 216.96094 z M 464.7168 221.66602 L 476.07617 221.66602 C 479.31884 221.66602 481.71806 222.50803 483.27539 224.19336 C 484.83272 225.85736 485.61133 228.001 485.61133 230.625 C 485.61133 233.22767 484.83272 235.36139 483.27539 237.02539 C 481.71806 238.66806 479.31884 239.49023 476.07617 239.49023 L 464.7168 239.49023 L 464.7168 221.66602 z " style="font-style:normal;font-variant:normal;font-weight:normal;font-stretch:normal;font-size:64px;line-height:1.25;font-family:'Roberto Sans';-inkscape-font-specification:'Roberto Sans, Normal';font-variant-ligatures:normal;font-variant-caps:normal;font-variant-numeric:normal;font-feature-settings:normal;text-align:start;letter-spacing:0px;word-spacing:0px;writing-mode:lr-tb;text-anchor:start;fill:#000000;fill-opacity:1;stroke:none;stroke-width:0.78096676;"/>

</svg>